<?xml version="1.0" standalone="no"?>
<!DOCTYPE svg PUBLIC "-//W3C//DTD SVG 1.1//EN" "http://www.w3.org/Graphics/SVG/1.1/DTD/svg11.dtd" >
<svg xmlns="http://www.w3.org/2000/svg">
<metadata></metadata>
<defs>
<font id="togetherregular" horiz-adv-x="1183" >
<font-face units-per-em="2048" ascent="1638" descent="-410" />
<missing-glyph horiz-adv-x="921" />
<glyph horiz-adv-x="0" />
<glyph horiz-adv-x="682" />
<glyph horiz-adv-x="1228" />
<glyph horiz-adv-x="1228" />
<glyph unicode="&#xd;" horiz-adv-x="1228" />
<glyph unicode=" "  horiz-adv-x="921" />
<glyph unicode="&#x09;" horiz-adv-x="921" />
<glyph unicode="&#xa0;" horiz-adv-x="921" />
<glyph unicode="!" horiz-adv-x="512" d="M63 111q9 46 48 81t84 35q44 0 70 -35t18 -81t-45.5 -78.5t-83.5 -32.5q-44 0 -71 32.5t-20 78.5zM125 383l133 750q8 40 40.5 68t72.5 28q39 0 62 -28.5t16 -67.5l-132 -750q-6 -38 -39 -66t-73 -28q-39 0 -62.5 27.5t-17.5 66.5z" />
<glyph unicode="&#x22;" horiz-adv-x="714" d="M63 1292l43 238q7 45 44.5 76.5t82.5 31.5q46 0 72 -31t19 -77l-43 -238q-7 -46 -45 -78t-82 -32q-46 0 -72.5 32t-18.5 78zM391 1292l41 238q7 45 45.5 76.5t83.5 31.5t71 -31.5t19 -76.5l-43 -238q-7 -46 -45 -78t-82 -32q-46 0 -72 32t-18 78z" />
<glyph unicode="#" horiz-adv-x="1433" d="M63 395q9 46 47.5 77.5t84.5 31.5h176l39 219h-177q-46 0 -73 32t-19 76t46.5 76.5t84.5 32.5h177l30 176q8 46 45.5 79.5t83.5 33.5q44 0 70.5 -33.5t17.5 -79.5l-30 -176h217l32 176q8 46 45.5 79.5t81.5 33.5q45 0 72 -33.5t19 -79.5l-31 -176h176q46 0 73 -32.5 t19 -76.5q-7 -44 -46 -76t-85 -32h-176l-39 -219h176q46 0 72.5 -31.5t19.5 -77.5q-8 -44 -45.5 -76t-83.5 -32h-176l-33 -176q-7 -46 -45 -78.5t-82 -32.5q-45 0 -71.5 32.5t-18.5 78.5l31 176h-217l-31 -176q-9 -46 -47 -78.5t-82 -32.5t-70.5 32.5t-19.5 78.5l31 176 h-176q-46 0 -73.5 32t-19.5 76zM590 504h217l39 219h-219z" />
<glyph unicode="$" horiz-adv-x="1245" d="M63 104q6 38 44.5 70.5t76.5 32.5h262l54 303h-6q-15 0 -38.5 2t-82.5 21.5t-100.5 53t-67.5 107.5t-8 174q16 92 58.5 163t101.5 113t126 63.5t138 21.5h6l18 102q8 43 43 74t78 31q44 0 69 -31t17 -74l-18 -102h262q40 0 67 -33.5t19 -73.5q-6 -38 -44.5 -71t-78.5 -33 h-262l-52 -301h7q15 0 38.5 -2t82 -21.5t99.5 -53.5t67 -108t8 -174q-16 -92 -58.5 -162.5t-101.5 -112t-125 -62.5t-137 -21h-7l-18 -104q-8 -43 -44 -74t-79 -31t-68.5 31t-17.5 74l19 104h-263q-39 0 -65 32.5t-19 71.5zM406 868q-11 -64 23.5 -107.5t100.5 -43.5h7 l53 301h-6q-67 0 -117 -43t-61 -107zM655 207h7q65 0 115 43.5t61 107.5t-23.5 108t-99.5 44h-6z" />
<glyph unicode="%" horiz-adv-x="1095" d="M56.5 -40.5q-12.5 41.5 15.5 87.5l739 1192q30 47 74 70.5t86 11.5q43 -12 57 -53.5t-12 -89.5q-740 -1188 -740 -1190q-30 -48 -76 -71.5t-87 -10.5q-44 12 -56.5 53.5zM63 999q17 95 96 162.5t173 67.5q95 0 150 -67.5t38 -162.5q-17 -94 -95 -160.5t-173 -66.5 q-94 0 -150 67t-39 160zM209 1001q-6 -35 13.5 -59t53.5 -24q36 0 65.5 24t35.5 59q6 34 -14.5 59t-55.5 25t-63.5 -25t-34.5 -59zM584 229q17 95 94.5 161.5t171.5 66.5q95 0 150 -66.5t40 -161.5q-17 -95 -96 -162t-174 -67q-94 0 -148.5 67t-37.5 162zM727 229 q-6 -35 14.5 -59.5t55.5 -24.5t63.5 24.5t34.5 59.5t-14.5 59.5t-55.5 24.5q-34 0 -63 -24.5t-35 -59.5z" />
<glyph unicode="&#x26;" horiz-adv-x="1116" d="M68 311l18 97q8 46 34.5 88t71.5 80.5t79 62.5t87 57q-57 70 -73 102q-25 51 -17 103l13 72q7 39 22.5 74t44 69.5t67 59t96.5 39.5t128 14q52 0 93.5 -9t69 -23t47 -33.5t29.5 -40.5t14.5 -45.5t3.5 -46t-5 -44.5l-14 -82q-13 -74 -56 -118t-139 -107q-17 -10 -25 -16 l166 -220l41 52q45 56 106 52.5t77.5 -50t-27.5 -111.5l-80 -96q-1 0 18.5 -25.5t40.5 -53t23 -30.5q20 -34 13.5 -74t-31.5 -66.5t-60.5 -38.5t-73.5 9q-9 4 -30.5 30.5t-38.5 50.5l-17 24q-41 -39 -115.5 -67.5t-160 -40.5t-171 -1t-151.5 43t-100 99.5t-18 160.5z M301 330q-14 -81 33 -111.5t143 -30.5q117 0 199 82l-209 283l-51 -33q-31 -21 -48.5 -37.5t-37.5 -56t-29 -96.5zM490 893q-2 -8 3 -19.5t6.5 -17t9 -15.5t11.5 -15t12.5 -14.5t12.5 -14.5q10 7 35.5 23.5t35.5 25t21.5 27t15.5 42.5l4 27q1 5 3 17t2.5 16t2 14t0.5 13.5 t-2.5 10.5t-5 9.5t-8.5 7t-12.5 6t-17.5 3t-23 1.5q-57 0 -73 -17t-27 -81l-4 -27q0 -14 -2 -22z" />
<glyph unicode="'" horiz-adv-x="387" d="M63 1108l41 238q7 45 45.5 77.5t83.5 32.5t71.5 -32.5t19.5 -77.5l-43 -238q-7 -45 -44.5 -77t-82.5 -32q-46 0 -72.5 31.5t-18.5 77.5z" />
<glyph unicode="(" horiz-adv-x="651" d="M60.5 300q-24.5 180 11.5 350t121 328.5t210 283.5q16 16 38 30.5t47.5 25t51 7t42.5 -24.5q20 -24 16.5 -56t-17.5 -60t-34 -49q-99 -105 -167 -232.5t-98.5 -264t-11.5 -280.5t92 -270q24 -38 17.5 -86.5t-39.5 -77.5q-43 -33 -91.5 -19.5t-74.5 58.5 q-89 157 -113.5 337z" />
<glyph unicode=")" horiz-adv-x="651" d="M53 -18.5q3 31.5 17 59.5t34 49q133 144 207 317t72.5 367t-94.5 363q-23 39 -16.5 87.5t40.5 78.5q41 32 89.5 18.5t74.5 -57.5q89 -157 112.5 -336t-13.5 -348.5t-120.5 -327.5t-205.5 -287q-23 -24 -53.5 -41.5t-67 -22.5t-59.5 25q-20 24 -17 55.5z" />
<glyph unicode="*" horiz-adv-x="602" d="M65.5 1244.5q-6.5 19.5 4.5 39.5t31 29.5t40 3.5l111 -37l22 123q5 22 22 37.5t38 15.5q22 0 34.5 -15.5t8.5 -37.5l-23 -123l125 39q22 6 39.5 -4t20.5 -31q3 -20 -10 -39.5t-35 -25.5l-123 -37l55 -101q9 -17 2 -38t-27 -33q-20 -13 -40 -10t-29 20l-56 100l-90 -100 q-15 -18 -37.5 -21t-37.5 11q-15 12 -14 33t16 38l90 101l-111 37q-20 6 -26.5 25.5z" />
<glyph unicode="+" horiz-adv-x="1067" d="M63 614q6 40 39.5 68.5t73.5 28.5h279l49 278q8 40 40 68t72 28t62.5 -28t15.5 -68l-49 -278h279q40 0 63.5 -28.5t16.5 -68.5q-8 -40 -40.5 -68t-72.5 -28h-279l-49 -278q-6 -38 -39 -66.5t-73 -28.5q-39 0 -62.5 28t-17.5 67l49 278h-279q-38 0 -61 28t-17 68z" />
<glyph unicode="," horiz-adv-x="387" d="M63 -121l43 238q7 46 45.5 78t84.5 32q44 0 70 -32t18 -78l-41 -238q-8 -44 -45.5 -76t-83.5 -32q-44 0 -71 32t-20 76z" />
<glyph unicode="-" horiz-adv-x="1050" d="M53 614q8 43 43.5 74t79.5 31h735q43 0 68.5 -31t17.5 -74q-7 -43 -43.5 -73.5t-79.5 -30.5h-735q-44 0 -69 30.5t-17 73.5z" />
<glyph unicode="." horiz-adv-x="346" d="M63 111q8 46 47 82t83 36q45 0 71.5 -35.5t18.5 -82.5q-9 -46 -47 -78.5t-82 -32.5q-46 0 -72.5 32.5t-18.5 78.5z" />
<glyph unicode="/" horiz-adv-x="561" d="M53 -76l250 1415q7 43 42.5 67.5t78.5 16.5q43 -7 67.5 -42t16.5 -78l-248 -1416q-8 -41 -44 -66t-77 -18q-43 8 -68 43t-18 78z" />
<glyph unicode="0" horiz-adv-x="1093" d="M70 342l96 543q16 91 59 158t108.5 107.5t146 59.5t177.5 19q96 0 169 -19t124 -59.5t70.5 -107.5t3.5 -158l-94 -543q-31 -177 -160.5 -259.5t-329.5 -82.5q-97 0 -170 19t-124.5 58.5t-71.5 106.5t-4 158zM301 373q-17 -94 26 -133t148 -39q106 0 162.5 39t73.5 133 l84 483q17 95 -25 134.5t-147 39.5q-106 0 -163 -39t-75 -135z" />
<glyph unicode="1" horiz-adv-x="587" d="M70 1071.5q21 52.5 71 67.5q105 35 207 78q32 15 65.5 12.5t60 -15t41.5 -39.5t9 -61l-176 -997q-8 -48 -48 -82.5t-89 -34.5q-47 0 -75.5 35t-20.5 82l153 864q-32 -11 -46.5 -15.5t-46.5 -10.5t-55 0.5t-40 25.5q-31 38 -10 90.5z" />
<glyph unicode="2" horiz-adv-x="1095" d="M63 123q13 86 34 151t52.5 111t52 69t59.5 58q9 8 13 12q29 26 105 64.5t180.5 85t130.5 59.5q73 36 100.5 97t12.5 114q-15 50 -66.5 70.5t-117.5 13t-113 -18.5t-82 -24q-5 -1 -12.5 -3t-27 -3.5t-35.5 2.5t-31 19.5t-19 41.5q-4 29 3.5 52.5t20.5 37t26.5 23 t23.5 13.5l10 3q218 71 366 55.5t222 -92.5t61 -194q-17 -168 -95 -262.5t-239 -157.5q-147 -57 -211 -93t-112 -81q-24 -21 -40.5 -60.5t-20.5 -68.5l-5 -29h492q11 0 24 -3.5t28.5 -13t23 -30.5t2.5 -51q-7 -38 -35 -60.5t-52 -25.5l-24 -4h-621q-51 0 -71 23.5t-13 99.5z " />
<glyph unicode="3" horiz-adv-x="987" d="M65 144q-12 55 29 95q44 44 105 23q9 -3 18 -8q56 -29 113 -44t122.5 -8.5t110.5 44.5q30 25 50.5 79t14 109t-47.5 76q-14 7 -42.5 11t-55 5.5t-55.5 7t-45 17t-23 35t10 59.5q17 40 51.5 57.5t69.5 17t78.5 6t70.5 26.5q48 35 66 117.5t-23 127.5q-35 33 -97 36 t-114 -11.5t-100 -36.5q-68 -31 -106 14q-31 38 -16 92q16 51 66 72q137 60 295 66q128 5 210.5 -51.5t99.5 -173.5q12 -85 -2.5 -161.5t-65 -139.5t-131.5 -85q65 -27 101 -77t40.5 -109t-11.5 -120.5t-52 -116.5t-84 -93q-72 -58 -168 -83t-190.5 -18t-184.5 40 q-93 33 -107 103z" />
<glyph unicode="4" horiz-adv-x="1048" d="M63.5 323q3.5 38 26.5 66l639 789q22 28 63.5 41t79.5 8.5t63 -32.5t17 -73l-123 -700h78q38 0 61 -28.5t17 -67.5q-8 -40 -40.5 -68.5t-72.5 -28.5h-77l-21 -120q-7 -44 -46 -76.5t-83 -32.5t-71 32.5t-19 76.5l20 120h-434q-40 0 -60.5 28t-17 66zM342 422h268l76 432z " />
<glyph unicode="5" horiz-adv-x="1054" d="M98 246q76 72 142 33q152 -91 274 -62q59 13 98 57t50 105l14 78q21 117 -47 157q-51 28 -110 18.5t-101 -46.5q-43 -39 -100 -45t-95 29t-26 102l82 461q8 40 39.5 68t70.5 28h524q37 0 60 -27.5t18 -64.5q-4 -39 -37 -67t-73 -28h-398l-45 -256q92 45 191 45 q156 0 231.5 -96t46.5 -268l-14 -86q-20 -120 -97.5 -212.5t-191.5 -133.5q-117 -46 -259.5 -31.5t-242.5 90.5q-80 80 -4 152z" />
<glyph unicode="6" horiz-adv-x="1015" d="M65 272.5q-3 59.5 7 126.5l73 418q15 87 53 160.5t98.5 130.5t149.5 89t199 32q14 0 33.5 -1t49 -4.5t57.5 -8.5t58 -13.5t52 -20.5t39 -27.5t18.5 -36t-8.5 -46.5q-8 -17 -18 -30t-20 -20.5t-21 -13t-21.5 -7.5t-20.5 -2.5t-18 0.5t-14 2.5l-10 2.5l-4 1q-77 34 -168 34 q-110 0 -175 -51t-81 -139l-17 -92q4 3 11.5 9t32.5 20.5t53 25.5t72 20t89 9q163 0 253.5 -98.5t60.5 -264.5l-19 -102q-31 -176 -167 -275.5t-316 -99.5q-88 0 -155.5 20.5t-109.5 56.5t-67.5 86t-28.5 109.5zM291 385q-35 -199 166 -199q92 0 153 51.5t78 149.5l12 74 q15 87 -26 138.5t-125 51.5q-105 0 -168 -51.5t-78 -144.5z" />
<glyph unicode="7" horiz-adv-x="960" d="M63 1130q6 40 41 69.5t76 29.5h639q51 3 71.5 -45.5t-5.5 -91.5l-578 -1020q-17 -31 -50.5 -51.5t-68.5 -20.5q-55 0 -80.5 50t1.5 102l516 880h-480q-41 0 -65 28.5t-17 69.5z" />
<glyph unicode="8" horiz-adv-x="1052" d="M68 332l6 26q22 93 73 164t125 109q-47 31 -74.5 96.5t-13.5 144.5l6 33q31 165 155.5 244.5t307.5 79.5q182 0 268.5 -77.5t65.5 -246.5l-4 -33q-10 -81 -62.5 -146t-119.5 -95q65 -33 95 -99t13 -155l-8 -45q-21 -112 -92 -188.5t-167.5 -110t-213.5 -33.5 q-88 0 -159 19.5t-122 58.5t-72.5 104t-6.5 150zM293 350q-17 -84 31.5 -124t134.5 -40q85 0 146 40t79 124l6 31q18 84 -30 123t-138 39q-196 0 -223 -162zM389 868q-14 -83 31.5 -122t130.5 -39q88 0 151 38.5t70 122.5l2 23q8 82 -26 120t-134 38t-153 -40t-68 -120z" />
<glyph unicode="9" horiz-adv-x="1019" d="M66 137q13 60 63 83.5t107 0.5q60 -23 125.5 -27t125 11.5t103 61t55.5 114.5l17 94q-57 -46 -128 -68t-138.5 -19t-130 30t-106 72t-63.5 113.5t-6 148.5l19 104q31 176 167.5 274.5t317.5 98.5q87 0 155 -20t110 -56.5t68 -86t29.5 -109t-6.5 -126.5l-73 -417 q-34 -189 -172.5 -301.5t-331.5 -112.5q-26 0 -51 1t-67 5t-75 13.5t-63.5 23.5t-44 38.5t-6.5 55.5zM317 770q-23 -118 59 -165q69 -39 167 -10q100 31 147 110q19 33 25 69l12 72q22 124 -59 173q-67 41 -162 11q-98 -31 -147 -114q-20 -34 -27 -72z" />
<glyph unicode=":" horiz-adv-x="466" d="M66 111q8 46 46.5 82t82.5 36t70 -36t18 -82t-45.5 -78.5t-83.5 -32.5q-44 0 -70.5 32.5t-17.5 78.5zM186 797q8 46 46.5 82t82.5 36t70 -36t18 -82t-45.5 -78.5t-83.5 -32.5q-44 0 -70.5 32.5t-17.5 78.5z" />
<glyph unicode=";" horiz-adv-x="507" d="M63 -121l41 238q7 45 45.5 77.5t83.5 32.5t71.5 -32.5t19.5 -77.5l-43 -238q-7 -44 -45 -76t-82 -32q-46 0 -72.5 32t-18.5 76zM225 795q8 46 46.5 82t82.5 36q45 0 71 -36t17 -82q-7 -46 -45 -78.5t-82 -32.5q-45 0 -71.5 32.5t-18.5 78.5z" />
<glyph unicode="&#x3c;" horiz-adv-x="800" d="M63 614q5 27 22.5 49.5t43.5 32.5l498 213q35 15 67 3t41 -44q9 -34 -9 -67.5t-54 -48.5l-316 -138l269 -135q30 -15 36.5 -50t-14.5 -67q-22 -32 -58 -45t-67 2l-422 216q-22 10 -32 32t-5 47z" />
<glyph unicode="=" horiz-adv-x="1134" d="M66 412q8 43 43 73.5t79 30.5h736q43 0 68 -30.5t18 -73.5q-8 -43 -44 -74t-79 -31h-735q-44 0 -69 31t-17 74zM133 813q8 43 43.5 74t79.5 31h735q43 0 68.5 -31t17.5 -74q-7 -43 -43.5 -73.5t-79.5 -30.5h-735q-44 0 -69 30.5t-17 73.5z" />
<glyph unicode="&#x3e;" horiz-adv-x="800" d="M66 362q-9 32 9.5 67t53.5 50l315 135l-268 138q-29 15 -35.5 48.5t15.5 67.5q20 32 56 44t67 -3l421 -213q22 -10 32 -32.5t5 -49.5q-5 -25 -22 -47t-43 -32l-498 -216q-35 -15 -67 -2t-41 45z" />
<glyph unicode="?" horiz-adv-x="741" d="M63 111q9 46 48 81t84 35q44 0 70 -35t18 -81q-7 -45 -45.5 -78t-83.5 -33q-44 0 -71 32.5t-20 78.5zM95 1094.5q6 34.5 30 58.5q62 62 217 74q54 5 105.5 -2t99.5 -26.5t81.5 -60.5t43.5 -98q11 -66 -0.5 -122t-39.5 -98.5t-65 -80.5t-77.5 -76t-76 -77t-62.5 -91.5 t-34 -111.5q-7 -56 -64 -81q-54 -23 -96 0t-32 81q13 74 41 134.5t63 101.5t69 73t70 68t56 69q29 48 30.5 89.5t-21 66.5t-57.5 38.5t-82 8.5t-91 -28q-39 -20 -64.5 -7.5t-37.5 38t-6 60z" />
<glyph unicode="@" horiz-adv-x="1347" d="M62.5 422q0.5 41 7.5 78l41 233q5 29 14.5 62t33 83.5t55.5 96t86.5 93.5t121.5 82.5t164 56.5t211 22q102 0 183.5 -18.5t133.5 -48.5t88 -71.5t53.5 -83t24.5 -88t5.5 -81.5t-7.5 -68l-37 -215q-50 -272 -289 -272q-62 0 -109.5 32.5t-47.5 94.5q0 21 30 184h-288 q-1 -6 -9 -54.5t-15.5 -93t-10.5 -51.5q-24 -61 -74 -61q-27 0 -41.5 19t-9.5 46l67 379q19 110 101.5 163.5t206.5 53.5q114 0 180 -51t49 -166l-53 -305q-5 -33 9.5 -53.5t47.5 -20.5q35 0 62 26t36 77l45 254q2 26 4.5 55t-6.5 61t-22.5 62t-42.5 57t-66.5 47.5t-95 32.5 t-127.5 12q-123 0 -218 -33.5t-152 -91t-89 -121.5t-45 -139l-30 -174q-19 -105 11.5 -189.5t114.5 -136t211 -51.5q166 0 293 52q46 19 74 -18q25 -35 7 -76q-17 -39 -68 -52q-207 -53 -332 -53q-96 0 -173.5 19.5t-129 51.5t-89 75.5t-57 89.5t-29 95.5t-9 90.5zM555 705 h289l12 71q19 117 -123 117q-69 0 -112.5 -30t-53.5 -91z" />
<glyph unicode="A" horiz-adv-x="1224" d="M63 117l127 725q33 184 171.5 285.5t381.5 101.5q241 0 343 -102q78 -77 78 -202q0 -40 -9 -85q-125 -710 -127 -723q-8 -48 -48 -82.5t-89 -34.5q-47 0 -75 35q-22 27 -23 62q0 10 2 20l65 368h-498l-65 -368q-8 -46 -49 -81.5t-88 -35.5q-49 0 -77 34q-22 27 -22 62 q0 10 2 21zM397 690h498l25 137q6 30 6 56q0 65 -34 105q-46 56 -181 56q-140 0 -205 -55.5t-84 -161.5z" />
<glyph unicode="B" horiz-adv-x="1185" d="M70 389l200 1133q7 49 47.5 82.5t90.5 33.5q48 0 76 -34q22 -27 21 -63q0 -9 -1 -19l-60 -330q107 37 256 37q240 0 344 -102q80 -78 80 -201q0 -38 -8 -80l-80 -455q-33 -185 -172 -288t-379 -103q-243 0 -345 102q-78 78 -78 204q0 39 8 83zM305 401q-6 -30 -6 -57 q0 -64 33 -102q46 -56 186 -56q135 0 201.5 56t85.5 159l74 430q6 30 6 56q0 63 -33 103q-46 57 -182 57q-72 0 -124.5 -15t-85 -45t-51 -66.5t-28.5 -86.5z" />
<glyph unicode="C" horiz-adv-x="1069" d="M64 338q3 58 16 129l67 383q62 364 498 379q18 0 48.5 -0.5t109.5 -10.5t141 -30q63 -29 63 -78q0 -48 -46 -88q-35 -31 -70 -30q-11 0 -23 3q-141 43 -213 45q-240 0 -282 -231l-76 -426q-1 -4 -2.5 -11t-2 -27.5t3.5 -39t17.5 -41.5t36.5 -39.5t64.5 -27.5t97.5 -11 q70 0 127 13q2 0 34.5 8.5t50 11.5t42.5 1t37 -13q14 -14 22.5 -34.5t8.5 -45t-23.5 -48.5t-69.5 -40q-101 -35 -261 -37q-11 0 -21 -1q-145 0 -223 32q-30 12 -47.5 20t-42 25t-38 36.5t-27 52t-17.5 72.5q-2 22 -1 48q0 24 1 51z" />
<glyph unicode="D" horiz-adv-x="1298" d="M61 307q0 41 9 84l80 455q32 179 171.5 281t380.5 102q149 0 242 -37l57 330q7 49 48.5 82.5t89.5 33.5q42 0 70 -27t28 -67q0 -14 -2 -22l-199 -1133q-32 -183 -171.5 -286t-381.5 -103q-212 0 -317 80.5t-105 226.5zM299 344q0 -76 50.5 -117t166.5 -41 q73 0 125.5 15.5t85.5 45t51 66.5t27 88l76 433q4 36 4 55q0 76 -49.5 117t-167.5 41q-136 0 -202 -56.5t-85 -159.5q-82 -462 -82 -487z" />
<glyph unicode="E" d="M68 365l86 497q28 166 181 266.5t384 100.5q69 0 129.5 -13t113 -43t88.5 -74.5t55 -110.5q16 -55 16 -120q0 -14 -1 -28q-47 -256 -47 -258q-9 -40 -43.5 -68.5t-75.5 -28.5h-635l-16 -86q-4 -25 -4 -47q-1 -64 35 -98q48 -46 190 -49h420q36 -1 58 -37q16 -27 16 -55 q0 -10 -2 -21q-8 -39 -38.5 -65.5t-68.5 -26.5h-434q-68 0 -131.5 13.5t-119.5 42.5t-95 70.5t-56 103.5q-10 36 -10 76q0 28 5 59zM354 690h537l24 139q5 27 5 51q0 76 -46 114q-60 50 -188 50q-132 0 -209 -50.5t-98 -166.5z" />
<glyph unicode="F" horiz-adv-x="1083" d="M63 117l130 725q32 184 169.5 285.5t380.5 101.5h195q40 -1 64 -29q19 -23 19 -53q0 -8 -1 -17q-8 -41 -41 -69.5t-76 -28.5h-194q-141 0 -204 -50t-81 -153l-25 -139h404q43 0 67 -30q18 -22 19 -52q0 -10 -2 -20q-8 -42 -43.5 -72.5t-77.5 -30.5h-404l-65 -368 q-8 -48 -48 -82.5t-89 -34.5q-47 0 -76 35q-23 27 -23 62q0 10 2 20z" />
<glyph unicode="G" d="M70 385l80 455q33 185 171 287t379 102q64 0 119.5 -8t108.5 -26.5t90.5 -48.5t65.5 -73t34 -100q2 -21 2 -45q0 -40 -6 -86l-168 -955q-15 -91 -72.5 -166t-156.5 -108q-67 -23 -176 -23q-41 0 -65 30q-17 22 -17 49q0 10 2 20q6 40 39.5 69t74.5 29q64 0 97.5 23.5 t42.5 80.5l24 148q-112 -39 -254 -39q-240 0 -343 103q-80 79 -80 202q0 38 8 80zM305 399q-6 -30 -6 -56q0 -62 33 -101q46 -56 184 -56q139 0 203.5 54t83.5 155l76 434q6 31 6 58q0 63 -33 102q-45 55 -184 55q-137 0 -202.5 -56t-84.5 -161z" />
<glyph unicode="H" horiz-adv-x="1232" d="M63 115l177 997q8 47 48 82t87 35q49 -1 77 -35q21 -27 21 -61q0 -10 -2 -21l-65 -371h466l64 371q9 47 49.5 82t87.5 35t75 -35q22 -27 23 -62q0 -10 -2 -20l-176 -997q-9 -48 -48.5 -81.5t-88.5 -33.5q-46 0 -74 34q-21 26 -22 60q0 10 2 21l74 420h-467l-74 -420 q-7 -47 -47.5 -81t-87.5 -34q-49 0 -77 34q-22 26 -22 60q0 10 2 21z" />
<glyph unicode="I" horiz-adv-x="522" d="M63 111l177 1005q7 46 46 79.5t83 33.5q44 1 71 -33q21 -26 21 -60q0 -10 -2 -20l-178 -1005q-8 -46 -45.5 -78.5t-83.5 -32.5q-44 0 -70 32q-20 25 -21 58q0 10 2 21z" />
<glyph unicode="J" horiz-adv-x="829" d="M63 -313q7 41 41 69.5t74 28.5q64 0 96.5 24t42.5 80l218 1223q8 48 48 82.5t89 34.5q47 0 74 -35q22 -26 22 -61q0 -10 -2 -21l-215 -1225q-10 -57 -36.5 -107t-73 -94.5t-122.5 -70t-174 -25.5q-41 0 -65 28q-18 23 -18 53q0 8 1 16z" />
<glyph unicode="K" horiz-adv-x="1247" d="M63 115l248 1407q7 47 48.5 81.5t89.5 34.5q47 0 75 -34q22 -27 23 -62q0 -10 -2 -20l-137 -772l596 450q33 30 82 30h2q50 0 77 -40q18 -29 18 -59q0 -14 -4 -28q-13 -44 -55 -77l-430 -328q202 -12 288 -114q64 -76 64 -191q0 -39 -8 -82l-32 -194q-7 -49 -48.5 -83 t-89.5 -34q-50 0 -78 33q-21 25 -20 60q0 11 2 24q35 203 35 211q3 19 3 36q0 72 -48 108q-59 44 -168 44h-227l-70 -401q-8 -47 -47.5 -81t-89.5 -34q-44 0 -74 34q-24 27 -24 63q0 9 1 18z" />
<glyph unicode="L" horiz-adv-x="864" d="M63 117l177 995q9 48 48.5 82.5t88.5 34.5q47 0 75 -35q22 -27 23 -62q0 -10 -2 -20l-160 -903h402q41 0 67 -30q20 -24 21 -56q0 -9 -2 -19q-7 -43 -43.5 -73.5t-79.5 -30.5h-518q-48 0 -76 34q-22 27 -22 64q0 9 1 19z" />
<glyph unicode="M" horiz-adv-x="1867" d="M63 115l132 743q22 123 99.5 208t186 124t240.5 39q217 0 323 -109q141 109 367 109q98 0 175.5 -23t131.5 -70q54 -46 76 -123q12 -42 12 -91q0 -41 -8 -88l-127 -723q-7 -47 -46 -79t-89 -32q-46 0 -74 32q-22 26 -21 61q0 9 1 18l131 741q4 23 4 43q-1 63 -41 98 q-54 47 -154.5 47t-173 -47t-88.5 -141l-131 -737q-9 -50 -49 -82.5t-92 -32.5q-48 0 -76 32q-22 25 -22 59q0 9 2 20l131 741q4 23 4 43q-1 63 -41 98q-54 47 -154 47t-173 -47.5t-89 -140.5l-131 -737q-7 -47 -48 -81t-89 -34q-49 0 -78 34q-23 26 -23 61q0 10 2 20z" />
<glyph unicode="N" horiz-adv-x="1177" d="M63 115l132 743q22 123 99.5 208t186 124t240.5 39q99 0 176.5 -23t132 -69.5t75.5 -123.5q11 -41 12 -90q0 -42 -9 -89l-127 -723q-7 -45 -47 -78t-86 -33t-74 32q-21 25 -22 59q0 10 2 20l129 741q5 24 5 44q0 61 -40 97q-54 47 -154 47q-102 0 -175 -47.5t-89 -140.5 l-131 -737q-8 -47 -48 -81t-89 -34t-78 34q-23 26 -23 61q0 10 2 20z" />
<glyph unicode="O" d="M70 385l80 455q32 184 170 286.5t380 102.5t344 -103q78 -78 79 -203q0 -40 -9 -85l-80 -453q-32 -180 -171.5 -282.5t-379.5 -102.5q-242 0 -344 101q-77 76 -77 199q0 40 8 85zM305 399q-6 -31 -6 -57q1 -62 33 -102q46 -56 184 -56t203 55.5t84 159.5l76 428 q6 30 6 56q1 64 -33 104q-46 57 -184 57q-139 0 -203.5 -56t-83.5 -161z" />
<glyph unicode="P" horiz-adv-x="1300" d="M66 -293l200 1133q32 184 170 286.5t381 102.5q240 0 343 -103q79 -79 79 -205q0 -39 -8 -83l-80 -455q-32 -179 -172 -281t-381 -102q-149 0 -242 37l-57 -330q-9 -49 -49 -83t-88 -34q-50 0 -78 34q-21 26 -20 60q0 11 2 23zM420 395q-4 -27 -4 -51q0 -67 33 -106 q45 -54 184 -54q138 0 203 55.5t84 159.5l75 428q6 30 6 56q1 63 -33 103q-46 56 -184 56q-140 0 -204.5 -55t-83.5 -160z" />
<glyph unicode="Q" d="M70 385l80 455q32 184 170.5 286.5t379.5 102.5q243 0 345 -103q77 -77 77 -201q0 -40 -8 -85l-199 -1133q-9 -47 -49.5 -82t-87.5 -35q-49 0 -77 34q-21 27 -21 60q0 11 2 23l57 330q-107 -37 -254 -37q-241 0 -344 102q-79 79 -79 202q0 38 8 81zM305 399 q-6 -30 -6 -57q0 -63 33 -102q46 -56 184 -56q139 0 203.5 54t83.5 157l76 432q6 31 6 58q0 64 -32 103q-45 56 -185 56q-137 0 -202.5 -56t-84.5 -161z" />
<glyph unicode="R" horiz-adv-x="1157" d="M63 117l127 723q19 119 89 209q139 180 462 180q200 0 318 -80q37 -25 37 -64q0 -18 -8 -38q-20 -51 -72 -78q-28 -15 -54 -15q-36 0 -65 29l-4 4q-54 57 -184 57q-140 0 -204 -55.5t-83 -161.5l-127 -710q-9 -48 -48.5 -82.5t-88.5 -34.5q-47 0 -75 34q-22 27 -22 62 q0 10 2 21z" />
<glyph unicode="S" horiz-adv-x="1247" d="M63 104q8 40 45.5 72.5t77.5 32.5h476q67 0 117 43.5t61 107.5q3 15 3 29q0 43 -27 77q-35 44 -101 44h-221q-15 0 -38.5 2t-82 21.5t-99.5 53.5t-67 108q-15 44 -15 97q0 37 7 78q32 178 152 268.5t270 90.5h477q38 1 65 -33q22 -27 22 -58q0 -7 -1 -14 q-8 -38 -46.5 -71t-76.5 -33h-477q-65 0 -115 -43.5t-61 -106.5q-3 -16 -2 -30q0 -46 25 -78q34 -44 99 -43h222q5 0 12.5 -0.5t32.5 -3.5t46 -9.5t53.5 -18.5t54.5 -30t49 -44.5t37 -62.5q11 -36 19 -84q3 -17 3 -35q0 -33 -10 -71q-16 -92 -58.5 -163.5t-101.5 -113 t-125 -62.5t-137 -21h-477q-39 0 -66 32q-22 27 -22 58q0 7 1 14z" />
<glyph unicode="T" horiz-adv-x="1122" d="M63 1133q8 40 40.5 68t72.5 28h805q39 -1 62 -29q18 -22 18 -49q0 -9 -2 -18q-6 -40 -40.5 -76.5t-72.5 -36.5h-282l-164 -903q-8 -48 -48.5 -82.5t-89.5 -34.5q-48 0 -76 35q-22 27 -22 62q0 10 2 20l164 903h-287q-38 0 -62 36q-19 29 -19 61q0 8 1 16z" />
<glyph unicode="U" horiz-adv-x="1177" d="M70 395l127 721q7 47 47 80t88 33q46 0 74 -33q22 -26 21 -62q0 -9 -1 -18l-131 -739q-4 -23 -4 -43q0 -62 40 -98q53 -48 154 -48t174 47.5t89 141.5l131 737q7 47 48 81t91 34q48 0 76 -34q22 -27 22 -61q0 -10 -2 -20l-131 -743q-22 -123 -99.5 -208t-186 -124 t-240.5 -39q-98 0 -175.5 23t-131.5 69q-54 47 -76 124q-12 42 -12 91q0 42 8 88z" />
<glyph unicode="V" horiz-adv-x="1138" d="M63 1094v7q-1 49 37 87q40 42 95 41q33 0 57.5 -19.5t30.5 -50.5l135 -901q448 897 450 899q18 32 49.5 52t65.5 20q54 1 80 -41q14 -22 14 -48q0 -21 -10 -44l-483 -963q-44 -81 -131 -117q-40 -16 -80 -16q-39 0 -76 16q-75 37 -90 117q-1 3 -72.5 479.5t-71.5 481.5z " />
<glyph unicode="W" horiz-adv-x="1867" d="M70 395l127 723q8 46 46.5 78.5t88.5 32.5q46 -1 74 -33q22 -26 21 -60q0 -9 -1 -18l-131 -741q-4 -23 -4 -43q0 -62 40 -98q53 -48 154 -48t174 47.5t89 141.5l131 737q9 51 49.5 83t93.5 32q46 -1 74 -33q22 -26 21 -60q0 -9 -1 -18l-131 -741q-4 -23 -4 -43 q1 -62 41 -98q54 -48 154.5 -48t173 47.5t88.5 141.5l131 737q7 47 48 81t91 34q48 0 76 -34q22 -27 22 -61q0 -10 -2 -20l-131 -743q-22 -123 -99.5 -208t-186 -124t-240.5 -39q-219 0 -322 109q-144 -109 -368 -109q-98 0 -175.5 23t-131.5 69q-54 47 -76 124 q-12 42 -12 91q0 42 8 88z" />
<glyph unicode="X" horiz-adv-x="1230" d="M63 109q6 28 25 53l395 452q-235 445 -237 451q-10 25 -4 53q8 45 46 78t83 33q53 0 78 -43l200 -383q332 379 334 381q42 45 94 45q45 0 71 -33q20 -25 21 -58q0 -10 -2 -20q-3 -28 -22 -53l-395 -451q233 -446 235 -454q10 -24 4 -51q-7 -45 -44.5 -77t-82.5 -32 q-58 0 -80 43l-200 381q-332 -381 -336 -385q-39 -39 -92 -39q-46 0 -72 32q-21 25 -20 59q0 9 1 18z" />
<glyph unicode="Y" horiz-adv-x="1011" d="M70 1055q-6 18 -6 36q0 25 12 52q20 46 65 71q30 16 59 16q17 0 32 -5q46 -13 59 -54l149 -438l301 438q29 42 79 55q18 4 33 4q30 0 54 -16q38 -25 42 -70v-11q0 -40 -27 -78l-410 -570l-66 -368q-8 -47 -48 -82t-87 -35q-49 0 -77 34q-21 27 -21 60q0 11 2 23l66 368z " />
<glyph unicode="Z" horiz-adv-x="1153" d="M63 92q5 37 29 66l699 876h-459q-40 0 -64 30q-18 22 -18 50q0 9 2 19q8 40 40.5 68t74.5 28h645q38 1 60 -25q20 -24 20 -56q0 -37 -23 -65l-698 -888h479q40 -1 63 -29q18 -23 18 -52q0 -8 -1 -16q-8 -40 -41 -69t-74 -29h-674q-43 0 -63 28q-16 22 -16 50q0 7 1 14z " />
<glyph unicode="[" horiz-adv-x="776" d="M53 -104l19 104l217 1229l18 104q8 43 43.5 74t79.5 31h207q44 0 69 -31t17 -74t-43 -73.5t-78 -30.5h-104l-217 -1229h104q43 0 68 -30.5t18 -73.5q-8 -43 -44 -74t-79 -31h-209q-43 0 -68.5 31t-17.5 74z" />
<glyph unicode="\" horiz-adv-x="561" d="M53 1303q-8 43 16.5 78t67.5 42q43 8 78.5 -16.5t42.5 -67.5l250 -1415q7 -42 -17.5 -77.5t-66.5 -43.5q-42 -7 -77.5 17.5t-43.5 66.5z" />
<glyph unicode="]" horiz-adv-x="776" d="M53 -104q7 43 43.5 73.5t79.5 30.5h105l217 1229h-105q-44 0 -69 30.5t-17 73.5t43.5 74t79.5 31h207q44 0 69 -31t17 -74l-18 -104l-216 -1229l-18 -104q-8 -43 -44 -74t-79 -31h-209q-43 0 -68.5 31t-17.5 74z" />
<glyph unicode="^" horiz-adv-x="733" d="M62.5 652q-6.5 35 15.5 67l295 461q36 49 90 49q25 0 45 -13t27 -36l133 -461q9 -32 -10 -67t-54 -50t-67 -2t-41 45l-84 291l-189 -291q-22 -32 -58 -45t-65 2q-31 15 -37.5 50z" />
<glyph unicode="_" horiz-adv-x="1050" d="M53 104q8 43 43.5 74t79.5 31h735q43 0 68.5 -31t17.5 -74q-7 -43 -43.5 -73.5t-79.5 -30.5h-735q-44 0 -69 30.5t-17 73.5z" />
<glyph unicode="`" horiz-adv-x="423" d="M63.5 1560.5q-4.5 31.5 14.5 53.5q19 23 49.5 24.5t56.5 -20.5l144 -123q28 -23 33.5 -55.5t-13.5 -55.5t-51.5 -22t-58.5 24l-144 121q-26 22 -30.5 53.5z" />
<glyph unicode="a" horiz-adv-x="1224" d="M63 117l127 725q33 184 171.5 285.5t381.5 101.5q241 0 343 -102q78 -77 78 -202q0 -40 -9 -85q-125 -710 -127 -723q-8 -48 -48 -82.5t-89 -34.5q-47 0 -75 35q-22 27 -23 62q0 10 2 20l65 368h-498l-65 -368q-8 -46 -49 -81.5t-88 -35.5q-49 0 -77 34q-22 27 -22 62 q0 10 2 21zM397 690h498l25 137q6 30 6 56q0 65 -34 105q-46 56 -181 56q-140 0 -205 -55.5t-84 -161.5z" />
<glyph unicode="b" horiz-adv-x="1185" d="M70 389l200 1133q7 49 47.5 82.5t90.5 33.5q48 0 76 -34q22 -27 21 -63q0 -9 -1 -19l-60 -330q107 37 256 37q240 0 344 -102q80 -78 80 -201q0 -38 -8 -80l-80 -455q-33 -185 -172 -288t-379 -103q-243 0 -345 102q-78 78 -78 204q0 39 8 83zM305 401q-6 -30 -6 -57 q0 -64 33 -102q46 -56 186 -56q135 0 201.5 56t85.5 159l74 430q6 30 6 56q0 63 -33 103q-46 57 -182 57q-72 0 -124.5 -15t-85 -45t-51 -66.5t-28.5 -86.5z" />
<glyph unicode="c" horiz-adv-x="1069" d="M64 338q3 58 16 129l67 383q62 364 498 379q18 0 48.5 -0.5t109.5 -10.5t141 -30q63 -29 63 -78q0 -48 -46 -88q-35 -31 -70 -30q-11 0 -23 3q-141 43 -213 45q-240 0 -282 -231l-76 -426q-1 -4 -2.5 -11t-2 -27.5t3.5 -39t17.5 -41.5t36.5 -39.5t64.5 -27.5t97.5 -11 q70 0 127 13q2 0 34.5 8.5t50 11.5t42.5 1t37 -13q14 -14 22.5 -34.5t8.5 -45t-23.5 -48.5t-69.5 -40q-101 -35 -261 -37q-11 0 -21 -1q-145 0 -223 32q-30 12 -47.5 20t-42 25t-38 36.5t-27 52t-17.5 72.5q-2 22 -1 48q0 24 1 51z" />
<glyph unicode="d" horiz-adv-x="1300" d="M70 391l80 455q32 179 171.5 281t380.5 102q149 0 242 -37l57 330q9 49 49.5 82.5t88.5 33.5q49 0 77 -34q21 -25 21 -59q0 -11 -2 -23l-199 -1133q-33 -184 -172 -286.5t-381 -102.5q-241 0 -343 103q-78 78 -78 205q0 39 8 83zM305 401q-6 -30 -6 -56q-1 -63 33 -103 q46 -56 184 -56q73 0 125.5 15.5t85.5 45t51 66.5t27 88l76 433q6 28 6 53q0 17 -3 33q-7 39 -28 67.5t-68.5 44t-119.5 15.5q-136 0 -202 -56.5t-85 -159.5z" />
<glyph unicode="e" d="M68 365l86 497q28 166 181 266.5t384 100.5q69 0 129.5 -13t113 -43t88.5 -74.5t55 -110.5q16 -55 16 -120q0 -14 -1 -28q-47 -256 -47 -258q-9 -40 -43.5 -68.5t-75.5 -28.5h-635l-16 -86q-6 -28 -6 -52q-1 -60 35 -94q50 -48 192 -48h420q36 -1 58 -37q16 -27 16 -55 q0 -10 -2 -21q-8 -39 -38.5 -65.5t-68.5 -26.5h-434q-68 0 -131.5 13.5t-119.5 42.5t-95 70.5t-56 103.5q-10 36 -10 76q0 28 5 59zM354 690h537l24 139q5 27 5 51q0 76 -46 114q-60 50 -188 50q-132 0 -209 -50.5t-98 -166.5z" />
<glyph unicode="f" horiz-adv-x="1083" d="M63 117l130 725q32 184 169.5 285.5t380.5 101.5h195q41 0 64 -29q19 -22 19 -53q0 -8 -1 -17q-8 -41 -41 -69.5t-76 -28.5h-194q-141 0 -204 -50t-81 -153l-25 -139h404q43 0 67 -30q19 -22 19 -52q0 -9 -2 -20q-8 -42 -43.5 -72.5t-77.5 -30.5h-404l-65 -368 q-8 -48 -48 -82.5t-89 -34.5q-47 0 -76 35q-23 27 -23 62q0 10 2 20z" />
<glyph unicode="g" d="M70 385l80 455q33 185 171 287t379 102q64 0 119.5 -8t108.5 -26.5t90.5 -48.5t65.5 -73t34 -100q2 -21 2 -45q0 -40 -6 -86l-168 -955q-15 -91 -72.5 -166t-156.5 -108q-67 -23 -176 -23q-41 0 -65 30q-17 22 -17 49q0 10 2 20q6 40 39.5 69t74.5 29q64 0 97.5 23.5 t42.5 80.5l24 148q-112 -39 -254 -39q-240 0 -343 103q-80 79 -80 202q0 38 8 80zM305 399q-6 -30 -6 -56q0 -62 33 -101q46 -56 184 -56q139 0 203.5 54t83.5 155l76 434q6 31 6 58q0 63 -33 102q-45 55 -184 55q-137 0 -202.5 -56t-84.5 -161z" />
<glyph unicode="h" horiz-adv-x="1232" d="M63 115l177 997q8 47 48 82t87 35q49 -1 77 -35q21 -27 21 -61q0 -10 -2 -21l-65 -371h466l64 371q9 47 49.5 82t87.5 35t75 -35q22 -27 23 -62q0 -10 -2 -20l-176 -997q-9 -48 -48.5 -81.5t-88.5 -33.5q-46 0 -74 34q-21 26 -22 60q0 10 2 21l74 420h-467l-74 -420 q-7 -47 -47.5 -81t-87.5 -34q-49 0 -77 34q-22 26 -22 60q0 10 2 21z" />
<glyph unicode="i" horiz-adv-x="522" d="M63 111l177 1005q7 46 46 79.5t83 33.5q44 1 71 -33q21 -26 21 -60q0 -10 -2 -20l-178 -1005q-8 -46 -45.5 -78.5t-83.5 -32.5q-44 0 -70 32q-20 25 -21 58q0 10 2 21z" />
<glyph unicode="j" horiz-adv-x="829" d="M63 -313q7 41 41 69.5t74 28.5q64 0 96.5 24t42.5 80l218 1223q8 48 48 82.5t89 34.5q47 0 74 -35q22 -26 22 -61q0 -10 -2 -21l-215 -1225q-10 -57 -36.5 -107t-73 -94.5t-122.5 -70t-174 -25.5q-41 0 -65 28q-18 23 -18 53q0 8 1 16z" />
<glyph unicode="k" horiz-adv-x="1247" d="M63 115l248 1407q7 47 48.5 81.5t89.5 34.5q47 0 75 -34q22 -27 23 -62q0 -10 -2 -20l-137 -772l596 450q33 30 82 30h2q50 0 77 -40q18 -29 18 -59q0 -14 -4 -28q-13 -44 -55 -77l-430 -328q202 -12 288 -114q64 -76 64 -191q0 -39 -8 -82l-32 -194q-7 -49 -48.5 -83 t-89.5 -34q-50 0 -78 33q-21 25 -20 60q0 11 2 24q35 203 35 211q3 19 3 36q0 72 -48 108q-59 44 -168 44h-227l-70 -401q-8 -47 -47.5 -81t-89.5 -34q-44 0 -74 34q-24 27 -24 63q0 9 1 18z" />
<glyph unicode="l" horiz-adv-x="864" d="M63 117l177 995q9 48 48.5 82.5t88.5 34.5q47 0 75 -35q22 -27 23 -62q0 -10 -2 -20l-160 -903h402q41 0 67 -30q20 -24 21 -56q0 -9 -2 -19q-7 -43 -43.5 -73.5t-79.5 -30.5h-518q-48 0 -76 34q-22 27 -22 64q0 9 1 19z" />
<glyph unicode="m" horiz-adv-x="1867" d="M63 115l132 743q22 123 99.5 208t186 124t240.5 39q217 0 323 -109q141 109 367 109q98 0 175.5 -23t131.5 -70q54 -46 76 -123q12 -42 12 -91q0 -41 -8 -88l-127 -723q-7 -47 -46 -79t-89 -32q-46 0 -74 32q-22 26 -21 61q0 9 1 18l131 741q4 23 4 43q-1 63 -41 98 q-54 47 -154.5 47t-173 -47t-88.5 -141l-131 -737q-9 -50 -49 -82.5t-92 -32.5q-48 0 -76 32q-22 25 -22 59q0 9 2 20l131 741q4 23 4 43q-1 63 -41 98q-54 47 -154 47t-173 -47.5t-89 -140.5l-131 -737q-7 -47 -48 -81t-89 -34q-49 0 -78 34q-23 26 -23 61q0 10 2 20z" />
<glyph unicode="n" horiz-adv-x="1177" d="M63 115l132 743q22 123 99.5 208t186 124t240.5 39q99 0 176.5 -23t132 -69.5t75.5 -123.5q11 -41 12 -90q0 -42 -9 -89l-127 -723q-7 -45 -47 -78t-86 -33t-74 32q-21 25 -22 59q0 10 2 20l129 741q5 24 5 44q0 61 -40 97q-54 47 -154 47q-102 0 -175 -47.5t-89 -140.5 l-131 -737q-8 -47 -48 -81t-89 -34t-78 34q-23 26 -23 61q0 10 2 20z" />
<glyph unicode="o" d="M70 385l80 455q32 184 170 286.5t380 102.5t344 -103q78 -78 79 -203q0 -40 -9 -85l-80 -453q-32 -180 -171.5 -282.5t-379.5 -102.5q-242 0 -344 101q-77 76 -77 199q0 40 8 85zM305 399q-6 -31 -6 -57q1 -62 33 -102q46 -56 184 -56t203 55.5t84 159.5l76 428 q6 30 6 56q1 64 -33 104q-46 57 -184 57q-139 0 -203.5 -56t-83.5 -161z" />
<glyph unicode="p" horiz-adv-x="1300" d="M66 -293l200 1133q32 184 170 286.5t381 102.5q240 0 343 -103q79 -79 79 -205q0 -39 -8 -83l-80 -455q-32 -179 -172 -281t-381 -102q-149 0 -242 37l-57 -330q-9 -49 -49 -83t-88 -34q-50 0 -78 34q-20 26 -20 60q0 11 2 23zM420 395q-4 -27 -4 -51q0 -66 33 -106 q45 -54 184 -54q138 0 203 55.5t84 159.5l75 428q6 30 6 56q0 63 -33 103q-47 56 -184 56q-140 0 -204.5 -55t-83.5 -160z" />
<glyph unicode="q" d="M70 385l80 455q32 184 170.5 286.5t379.5 102.5q243 0 345 -103q77 -77 77 -201q0 -40 -8 -85l-199 -1133q-9 -47 -49.5 -82t-87.5 -35q-49 0 -77 34q-21 27 -21 60q0 11 2 23l57 330q-107 -37 -254 -37q-241 0 -344 102q-79 79 -79 202q0 38 8 81zM305 399 q-6 -30 -6 -57q0 -63 33 -102q46 -56 184 -56q139 0 203.5 54t83.5 157l76 432q6 31 6 58q0 64 -32 103q-45 56 -185 56q-137 0 -202.5 -56t-84.5 -161z" />
<glyph unicode="r" horiz-adv-x="1157" d="M63 117l127 723q19 119 89 209q139 180 462 180q200 0 318 -80q37 -25 37 -64q0 -18 -8 -38q-20 -51 -72 -78q-28 -15 -54 -15q-36 0 -65 29l-4 4q-54 57 -184 57q-140 0 -204 -55.5t-83 -161.5l-127 -710q-9 -48 -48.5 -82.5t-88.5 -34.5q-47 0 -75 34q-22 27 -22 62 q0 10 2 21z" />
<glyph unicode="s" horiz-adv-x="1247" d="M63 104q8 40 45.5 72.5t77.5 32.5h476q67 0 117 43.5t61 107.5q3 15 3 29q0 43 -27 77q-35 44 -101 44h-221q-15 0 -38.5 2t-82 21.5t-99.5 53.5t-67 108q-15 44 -15 97q0 37 7 78q32 178 152 268.5t270 90.5h477q38 1 65 -33q22 -27 22 -58q0 -7 -1 -14 q-8 -38 -46.5 -71t-76.5 -33h-477q-65 0 -115 -43.5t-61 -106.5q-3 -16 -2 -30q0 -46 25 -78q34 -44 99 -43h222q5 0 12.5 -0.5t32.5 -3.5t46 -9.5t53.5 -18.5t54.5 -30t49 -44.5t37 -62.5q11 -36 19 -84q3 -17 3 -35q0 -33 -10 -71q-16 -92 -58.5 -163.5t-101.5 -113 t-125 -62.5t-137 -21h-477q-39 0 -66 32q-22 27 -22 58q0 7 1 14z" />
<glyph unicode="t" horiz-adv-x="1122" d="M63 1133q8 40 40.5 68t72.5 28h805q39 -1 62 -29q18 -22 18 -49q0 -9 -2 -18q-6 -40 -40.5 -76.5t-72.5 -36.5h-282l-164 -903q-8 -48 -48.5 -82.5t-89.5 -34.5q-48 0 -76 35q-22 27 -22 62q0 10 2 20l164 903h-287q-38 0 -62 36q-19 29 -19 61q0 8 1 16z" />
<glyph unicode="u" horiz-adv-x="1177" d="M70 395l127 721q7 47 47 80t88 33q46 0 74 -33q22 -26 21 -62q0 -9 -1 -18l-131 -739q-4 -23 -4 -43q0 -62 40 -98q53 -48 154 -48t174 47.5t89 141.5l131 737q7 47 48 81t91 34q48 0 76 -34q22 -27 22 -61q0 -10 -2 -20l-131 -743q-22 -123 -99.5 -208t-186 -124 t-240.5 -39q-98 0 -175.5 23t-131.5 69q-54 47 -76 124q-12 42 -12 91q0 42 8 88z" />
<glyph unicode="v" horiz-adv-x="1138" d="M63 1094v7q-1 49 37 87q40 42 95 41q33 0 57.5 -19.5t30.5 -50.5l135 -901q448 897 450 899q18 32 49.5 52t65.5 20q54 1 80 -41q14 -22 14 -48q0 -21 -10 -44l-483 -963q-32 -58 -89 -95.5t-122 -37.5q-58 0 -106 36t-60 97q-1 3 -72.5 479.5t-71.5 481.5z" />
<glyph unicode="w" horiz-adv-x="1867" d="M70 395l127 723q8 46 46.5 78.5t88.5 32.5q46 -1 74 -33q22 -26 21 -60q0 -9 -1 -18l-131 -741q-4 -23 -4 -43q0 -62 40 -98q53 -48 154 -48t174 47.5t89 141.5l131 737q9 51 49.5 83t93.5 32q46 -1 74 -33q22 -26 21 -60q0 -9 -1 -18l-131 -741q-4 -23 -4 -43 q1 -62 41 -98q54 -48 154.5 -48t173 47.5t88.5 141.5l131 737q7 47 48 81t91 34q48 0 76 -34q22 -27 22 -61q0 -10 -2 -20l-131 -743q-22 -123 -99.5 -208t-186 -124t-240.5 -39q-219 0 -322 109q-144 -109 -368 -109q-98 0 -175.5 23t-131.5 69q-54 47 -76 124 q-12 42 -12 91q0 42 8 88z" />
<glyph unicode="x" horiz-adv-x="1230" d="M63 109q6 28 25 53l395 450q-235 447 -237 453q-10 25 -4 53q8 45 46 78t83 33q53 0 78 -43l200 -383q332 379 334 381q42 45 94 45q45 0 71 -33q20 -25 21 -58q0 -10 -2 -20q-3 -28 -22 -53l-395 -453q233 -444 235 -452q10 -24 4 -51q-7 -45 -44.5 -77t-82.5 -32 q-58 0 -80 43l-200 381q-332 -381 -336 -385q-39 -39 -92 -39q-46 0 -72 32q-21 25 -20 59q0 9 1 18z" />
<glyph unicode="y" horiz-adv-x="1011" d="M70 1055q-6 18 -6 36q0 25 12 52q20 46 65 71q30 16 59 16q17 0 32 -5q46 -13 59 -54l149 -438l301 438q29 42 79 55q18 4 33 4q30 0 54 -16q38 -25 42 -70v-11q0 -40 -27 -78l-410 -570l-66 -368q-8 -47 -48 -82t-87 -35q-49 0 -77 34q-21 27 -21 60q0 11 2 23l66 368z " />
<glyph unicode="z" horiz-adv-x="1153" d="M63 92q5 37 29 66l699 876h-459q-40 0 -64 30q-18 22 -18 50q0 9 2 19q8 40 40.5 68t74.5 28h645q38 1 60 -25q20 -24 20 -56q0 -37 -23 -65l-698 -888h479q40 -1 63 -29q18 -23 18 -52q0 -8 -1 -16q-8 -40 -41 -69t-74 -29h-674q-43 0 -63 28q-16 22 -16 50q0 7 1 14z " />
<glyph unicode="{" horiz-adv-x="806" d="M53 614q5 30 23 49.5t38 27.5t45.5 17.5t37.5 18.5q18 14 31.5 44t17.5 53l4 24l86 485q8 43 44 74t79 31h209q43 0 68.5 -31t17.5 -74q-7 -43 -43.5 -73.5t-79.5 -30.5h-105q-26 -148 -67 -381q-10 -59 -32 -104t-44.5 -68.5t-49 -38.5t-41 -18.5t-26.5 -4.5l12 -2 t18.5 -5t23 -11.5t23 -19t21 -29.5t14.5 -41t6 -55.5t-7 -71.5l-68 -379h105q43 0 68 -30.5t18 -73.5q-8 -43 -44 -74t-79 -31h-209q-43 0 -68.5 31t-17.5 74l86 483q2 10 4.5 26.5t0 49.5t-16.5 47q-9 9 -41.5 20.5t-50.5 32t-11 59.5z" />
<glyph unicode="}" horiz-adv-x="806" d="M53 -104q7 43 43.5 73.5t79.5 30.5h105q26 148 67 379q10 61 32.5 106.5t45 68.5t50 38t40.5 18t25 4q-7 1 -15.5 3t-23.5 8t-26.5 16.5t-25 27.5t-19 41.5t-8.5 59t7 78.5l68 381h-105q-43 0 -68 30.5t-18 73.5q8 43 44 74t79 31h209q43 0 68.5 -31t17.5 -74l-86 -485 q-19 -90 10 -121q9 -9 31 -18.5t39 -17.5t28.5 -27.5t6.5 -49.5q-7 -39 -32.5 -59.5t-62.5 -32.5t-49 -20q-18 -14 -31.5 -44.5t-17.5 -54.5l-4 -24l-86 -483q-8 -43 -44 -74t-79 -31h-209q-43 0 -68.5 31t-17.5 74z" />
<glyph unicode="~" horiz-adv-x="759" d="M62.5 588.5q3.5 28.5 31.5 56.5q35 35 91.5 62.5t103.5 27.5q39 0 75 -15.5t59.5 -33t47.5 -31t50 -10t57 30.5q26 22 58.5 23.5t53.5 -27.5q13 -27 2.5 -57t-33.5 -44l-22.5 -15t-26.5 -17.5t-24.5 -15t-28 -15t-26.5 -10.5t-30 -8.5t-28 -2.5q-40 0 -76 14t-57.5 31.5 t-44.5 31.5t-39 14q-29 0 -70 -29q-34 -23 -62 -20.5t-46.5 17t-15 43z" />
<glyph horiz-adv-x="0" />
<glyph unicode="&#xa1;" horiz-adv-x="512" d="M63 96l132 748q8 40 40 68t72 28t63 -28t17 -68l-133 -748q-6 -40 -38.5 -68t-74.5 -28q-40 0 -62.5 28t-15.5 68zM229 1110q8 46 46.5 82.5t82.5 36.5q45 0 71 -36.5t17 -82.5q-7 -46 -45 -78.5t-82 -32.5q-45 0 -71.5 32.5t-18.5 78.5z" />
<glyph unicode="&#xa2;" horiz-adv-x="739" d="M68 459l55 313q35 187 209 236l22 127q6 38 39.5 66t73.5 28q38 0 61.5 -28t16.5 -66l-21 -113q64 -9 117 -27q22 -8 31 -25t4 -36t-16 -37t-29 -29.5t-35 -11.5q-25 0 -74.5 14.5t-77.5 14.5q-62 0 -108.5 -33.5t-56.5 -93.5l-52 -285q-10 -57 25.5 -92t97.5 -35 q68 0 144 27q31 11 52.5 -16t16.5 -60q-9 -66 -169 -86q-7 -2 -11 -2l-21 -113q-8 -39 -40.5 -67.5t-71.5 -28.5t-62.5 28.5t-17.5 67.5l23 127q-157 49 -125 236z" />
<glyph unicode="&#xa3;" horiz-adv-x="1073" d="M66 96q11 53 82.5 191.5t72.5 204.5h-43q-39 0 -62 28.5t-16 67.5q6 38 39.5 66t73.5 28h29q8 145 22 223q15 83 58.5 147t106 101.5t135 56.5t151.5 19q130 0 239 -47q66 -29 54 -91q-11 -51 -62 -84q-57 -37 -108 -10q-81 43 -158 43q-69 0 -123 -37.5t-65 -105.5 q-10 -55 -19 -215l123 -2q42 0 64 -26.5t22 -67.5t-30 -67.5t-83 -26.5h-125q-35 -161 -104 -302h405q36 0 62.5 -28t26.5 -64q0 -43 -21.5 -70.5t-67.5 -27.5h-602q-40 0 -63 28.5t-14 67.5z" />
<glyph unicode="&#xa4;" horiz-adv-x="1124" d="M63 614q6 41 41 71t76 30h109q35 67 94 117t131 73l18 109q8 41 42 70.5t75 29.5t65 -29.5t17 -70.5l-18 -109q63 -23 104 -72.5t53 -117.5h109q40 0 64 -30t18 -71q-8 -40 -43 -69t-76 -29h-108q-33 -67 -92.5 -116.5t-131.5 -73.5l-18 -109q-7 -41 -42.5 -70.5 t-76.5 -29.5t-65 29.5t-17 70.5l19 109q-63 23 -104.5 73t-51.5 117h-109q-41 0 -65.5 29t-16.5 69zM461 614q-6 -40 18.5 -69t65.5 -29t75 29t42 69q8 41 -16.5 71t-65.5 30t-76 -30t-43 -71z" />
<glyph unicode="&#xa5;" horiz-adv-x="1050" d="M63 395q6 38 38 65t69 27h147l-211 568q-15 41 6 87.5t66 71.5q46 24 92.5 11.5t59.5 -54.5l147 -438l301 438q29 42 79.5 54.5t86.5 -11.5q38 -25 43 -71.5t-26 -87.5l-412 -568h147q37 0 59 -27t15 -65q-6 -38 -37 -64t-69 -26h-148l-33 -188q-8 -47 -48 -82t-87 -35 q-49 0 -76.5 34.5t-19.5 82.5l33 188h-146q-38 0 -60 26t-16 64z" />
<glyph unicode="&#xa8;" horiz-adv-x="514" d="M63 1554q6 33 33.5 58.5t59.5 25.5t50.5 -23.5t12.5 -55.5q-6 -33 -33 -58.5t-59 -25.5t-51 23.5t-13 55.5zM295 1554q6 33 34 58.5t58 25.5q32 0 51 -23.5t13 -55.5q-5 -32 -33 -58t-60 -26q-31 0 -49.5 23.5t-13.5 55.5z" />
<glyph unicode="&#xa9;" horiz-adv-x="542" d="M66 1434q15 86 85.5 145t155.5 59t134 -59t36 -145q-15 -85 -85.5 -145t-155.5 -60t-134.5 60t-35.5 145zM111 1434q-12 -66 27 -114t106 -48q66 0 122 48t68 114q11 68 -28.5 114.5t-106.5 46.5t-122.5 -47t-65.5 -114zM184.5 1369q-1.5 -13 6 -22.5t12 -12.5t14.5 -7 q15 -6 44 -6t48 6q11 4 15.5 11t3 12.5t-5.5 9.5q-8 3 -14.5 2.5t-19.5 -3.5t-20 -3q-23 0 -33 9t-9 17l1 9q7 36 15 79t53 43q15 0 39 -8q8 -2 16 5t8 16.5t-12 13.5q-11 4 -24.5 6t-21.5 2h-7q-80 -4 -92 -71q-3 -7 -13 -70q-2 -25 -3.5 -38z" />
<glyph unicode="&#xab;" horiz-adv-x="1169" d="M62 615.5q6 38.5 38 64.5l361 305q31 26 68.5 26t60.5 -26q22 -26 15 -64.5t-38 -64.5l-284 -242l198 -239q23 -28 16.5 -65.5t-38.5 -63.5q-31 -28 -69 -28t-60 28l-250 303l-2 2q-22 26 -16 64.5zM565.5 614.5q6.5 37.5 38.5 65.5l359 305q32 26 69.5 26t59.5 -26 t15 -64.5t-38 -64.5l-283 -242l199 -239q22 -28 15 -65.5t-39 -63.5q-31 -28 -69 -28t-61 28l-249 303v2q-23 26 -16.5 63.5z" />
<glyph unicode="&#xac;" horiz-adv-x="1206" d="M80 502q-36 48 0 108q35 57 94 60h893q38 -3 60 -32t16 -67l-60 -340q-13 -43 -47 -67q-23 -18 -51 -23t-55 6q-24 9 -37 34t-8 50l41 240h-787q-37 3 -59 31z" />
<glyph unicode="&#xad;" horiz-adv-x="659" d="M63 610q6 34 34.5 58t62.5 24h372q32 0 51 -24.5t13 -57.5t-33 -56.5t-59 -23.5h-373q-34 0 -54 24t-14 56z" />
<glyph unicode="&#xae;" horiz-adv-x="540" d="M66 1434q15 86 85 145t156 59q85 0 134 -59t34 -145q-15 -85 -86 -145t-156 -60t-133.5 60t-33.5 145zM109 1434q-12 -66 27 -114t106 -48t122.5 48t67.5 114q12 67 -27.5 114t-105.5 47q-68 0 -123 -47t-67 -114zM174 1341l25 136q6 26 12 34q11 18 36.5 27.5t51.5 9.5 q43 0 61 -18q9 -8 4 -19t-15.5 -13.5t-20.5 5.5q-10 10 -33 10q-46 0 -53 -38l-25 -134q-2 -8 -8.5 -14t-15.5 -6t-15 6t-4 14z" />
<glyph unicode="&#xaf;" horiz-adv-x="466" d="M63 1559q6 34 35 56.5t64 22.5h180q32 -1 49.5 -24t11.5 -55q-5 -33 -31.5 -57.5t-58.5 -24.5h-180q-35 0 -55.5 24t-14.5 58z" />
<glyph unicode="&#xb0;" horiz-adv-x="587" d="M66 1227q17 95 95.5 162t172.5 67q95 0 150 -67t38 -162q-15 -95 -94 -162.5t-174 -67.5t-150 67.5t-38 162.5zM211 1227q-6 -35 14 -59.5t54 -24.5q35 0 64.5 24.5t35.5 59.5t-14.5 59.5t-55.5 24.5t-63.5 -24.5t-34.5 -59.5z" />
<glyph unicode="&#xb1;" horiz-adv-x="1165" d="M53 104q7 44 43.5 74.5t79.5 30.5h735q43 0 68 -30.5t18 -74.5q-7 -43 -43.5 -73.5t-79.5 -30.5h-735q-43 0 -68 30.5t-18 73.5zM170 760q7 40 41 68t72 28h278l49 279q7 39 40.5 66.5t72.5 27.5q40 0 63.5 -27.5t16.5 -66.5l-49 -279h278q40 0 63 -28t17 -68 q-7 -40 -41 -68t-72 -28h-278l-49 -279q-7 -40 -41 -68t-72 -28h-2q-39 0 -62 28.5t-16 67.5l49 279h-278q-40 0 -63 28t-17 68z" />
<glyph unicode="&#xb4;" horiz-adv-x="421" d="M62.5 1439.5q5.5 32.5 33.5 55.5q142 121 144 123q26 22 56.5 20.5t49.5 -24.5q17 -22 13 -53t-29 -54l-144 -121q-28 -23 -59.5 -24t-50.5 22t-13.5 55.5z" />
<glyph unicode="&#xb6;" horiz-adv-x="1882" d="M70 385l80 455q33 185 171.5 287t378.5 102h1026q46 0 73.5 -32.5t19.5 -76.5q-7 -44 -45.5 -76t-83.5 -32h-109l-229 -1309q-9 -46 -47 -79.5t-82 -33.5q-45 0 -71.5 33.5t-18.5 79.5l231 1309h-252q20 -72 4 -170l-201 -1135q-8 -48 -48 -82.5t-89 -34.5 q-47 0 -75.5 35t-20.5 82l59 332q-112 -39 -256 -39q-239 0 -343 103t-72 282zM305 399q-16 -104 29.5 -159.5t181.5 -55.5q139 0 203.5 54t85.5 157l76 432q20 114 -34.5 165.5t-178.5 51.5q-112 0 -188.5 -52.5t-98.5 -164.5z" />
<glyph unicode="&#xb7;" horiz-adv-x="346" d="M63 111q8 46 47 82t83 36q45 0 71.5 -35.5t18.5 -82.5q-9 -46 -47 -78.5t-82 -32.5q-46 0 -72.5 32.5t-18.5 78.5z" />
<glyph unicode="&#xb8;" horiz-adv-x="456" d="M63 -240q4 29 30 50.5t57 21.5q36 0 64 24.5t34 59.5t-14.5 59.5t-55.5 24.5q-29 0 -46.5 21.5t-12.5 50.5q6 31 30.5 52t53.5 21q94 0 149.5 -66.5t38.5 -162.5q-17 -95 -95 -162t-173 -67q-30 0 -48 21.5t-12 51.5z" />
<glyph unicode="&#xbb;" horiz-adv-x="1169" d="M62.5 309.5q6.5 37.5 37.5 65.5l285 239l-199 242q-23 26 -16 64.5t39 64.5q31 26 68.5 26t60.5 -26l250 -305q23 -28 16 -65.5t-39 -63.5v-2l-358 -303q-32 -28 -69.5 -28t-59.5 28q-22 26 -15.5 63.5zM564.5 309.5q6.5 37.5 37.5 65.5l285 239l-199 242 q-22 26 -15 64.5t38 64.5t69 26t60 -26l252 -305q22 -28 15 -65.5t-38 -63.5q-2 0 -2 -2l-358 -303q-31 -28 -68.5 -28t-60.5 28q-22 26 -15.5 63.5z" />
<glyph unicode="&#xbf;" horiz-adv-x="741" d="M70 188q-11 66 0.5 122t39.5 98.5t64.5 81t77.5 76.5t76 77t62 91.5t34 111.5q7 56 64 81q54 23 96 0t32 -81q-13 -74 -41 -134.5t-63 -101.5t-69 -73.5t-70 -68.5t-56 -69q-43 -67 -26 -131q11 -39 39.5 -58t66.5 -17.5t72 9.5t70 23q50 20 81 -4t29.5 -68.5 t-33.5 -76.5q-36 -36 -89.5 -51t-127.5 -23q-54 -6 -105.5 1t-99 26.5t-81 60.5t-43.5 98zM459 1118q7 45 45.5 78t83.5 33q44 0 70.5 -32.5t19.5 -78.5q-9 -47 -47.5 -82t-83.5 -35q-44 0 -70 35.5t-18 81.5z" />
<glyph unicode="&#xc0;" horiz-adv-x="1224" d="M63 117l127 725q33 184 171.5 285.5t381.5 101.5q240 0 342.5 -102t69.5 -287l-127 -723q-8 -48 -48 -82.5t-89 -34.5q-47 0 -75.5 35t-20.5 82l65 368h-498l-65 -368q-8 -46 -49 -81.5t-88 -35.5q-49 0 -77 34.5t-20 82.5zM397 690h498l25 137q19 104 -27.5 160.5 t-181.5 56.5q-140 0 -205 -55.5t-84 -161.5zM606.5 1560.5q-4.5 31.5 14.5 53.5q19 23 49.5 24.5t56.5 -20.5l143 -123q28 -23 34 -55.5t-13 -55.5t-52 -22t-59 24l-143 121q-26 22 -30.5 53.5z" />
<glyph unicode="&#xc1;" horiz-adv-x="1224" d="M63 117l127 725q33 184 171.5 285.5t381.5 101.5q240 0 342.5 -102t69.5 -287l-127 -723q-8 -48 -48 -82.5t-89 -34.5q-47 0 -75.5 35t-20.5 82l65 368h-498l-65 -368q-8 -46 -49 -81.5t-88 -35.5q-49 0 -77 34.5t-20 82.5zM397 690h498l25 137q19 104 -27.5 160.5 t-181.5 56.5q-140 0 -205 -55.5t-84 -161.5zM595 1439.5q6 32.5 34 55.5q141 121 143 123q28 22 58 20.5t49 -24.5q18 -21 13.5 -53.5t-30.5 -53.5l-143 -121q-28 -23 -60 -24t-51 22t-13 55.5z" />
<glyph unicode="&#xc2;" horiz-adv-x="1224" d="M63 117l127 725q33 184 171.5 285.5t381.5 101.5q240 0 342.5 -102t69.5 -287l-127 -723q-8 -48 -48 -82.5t-89 -34.5q-47 0 -75.5 35t-20.5 82l65 368h-498l-65 -368q-8 -46 -49 -81.5t-88 -35.5q-49 0 -77 34.5t-20 82.5zM397 690h498l25 137q19 104 -27.5 160.5 t-181.5 56.5q-140 0 -205 -55.5t-84 -161.5zM526 1441.5q12 32.5 43 55.5l166 123q24 18 56 18q33 0 51 -18l123 -123q23 -23 23 -55.5t-23 -55.5q-24 -23 -55.5 -22t-55.5 25l-90 90l-123 -90q-33 -24 -65.5 -25t-47.5 22q-14 23 -2 55.5z" />
<glyph unicode="&#xc3;" horiz-adv-x="1224" d="M63 117l127 725q33 184 171.5 285.5t381.5 101.5q240 0 342.5 -102t69.5 -287l-127 -723q-8 -48 -48 -82.5t-89 -34.5q-47 0 -75.5 35t-20.5 82l65 368h-498l-65 -368q-8 -46 -49 -81.5t-88 -35.5q-49 0 -77 34.5t-20 82.5zM397 690h498l25 137q19 104 -27.5 160.5 t-181.5 56.5q-140 0 -205 -55.5t-84 -161.5zM570.5 1535q-2.5 24 19.5 46q74 57 125 57q26 0 50 -10t39 -21.5t30.5 -21t33 -7t37.5 20.5q14 13 35 15.5t35 -10.5q13 -16 6.5 -38t-23.5 -34q-77 -55 -122 -55q-29 0 -53 10t-38.5 21.5t-29 21t-31 7t-37.5 -20.5 q-25 -23 -49.5 -14t-27 33z" />
<glyph unicode="&#xc4;" horiz-adv-x="1224" d="M63 117l127 725q33 184 171.5 285.5t381.5 101.5q240 0 342.5 -102t69.5 -287l-127 -723q-8 -48 -48 -82.5t-89 -34.5q-47 0 -75.5 35t-20.5 82l65 368h-498l-65 -368q-8 -46 -49 -81.5t-88 -35.5q-49 0 -77 34.5t-20 82.5zM397 690h498l25 137q19 104 -27.5 160.5 t-181.5 56.5q-140 0 -205 -55.5t-84 -161.5zM594 1554q6 33 33 58.5t59 25.5t51 -23.5t13 -55.5q-6 -33 -33.5 -58.5t-59.5 -25.5t-50.5 23.5t-12.5 55.5zM825 1554q6 33 34 58.5t59 25.5q32 0 50.5 -23.5t12.5 -55.5q-5 -33 -32.5 -58.5t-59.5 -25.5q-31 0 -50 23.5 t-14 55.5z" />
<glyph unicode="&#xc5;" horiz-adv-x="1224" d="M63 117l127 725q33 184 171.5 285.5t381.5 101.5q240 0 342.5 -102t69.5 -287l-127 -723q-8 -48 -48 -82.5t-89 -34.5q-47 0 -75.5 35t-20.5 82l65 368h-498l-65 -368q-8 -46 -49 -81.5t-88 -35.5q-49 0 -77 34.5t-20 82.5zM397 690h498l25 137q19 104 -27.5 160.5 t-181.5 56.5q-140 0 -205 -55.5t-84 -161.5zM637 1501q11 57 58 97t104 40t89.5 -40t22.5 -97q-9 -57 -56.5 -97t-104.5 -40t-90 40t-23 97zM733 1501q-3 -17 7.5 -29t27.5 -12t30.5 12t16.5 29t-6.5 29t-26.5 12t-31.5 -12t-17.5 -29z" />
<glyph unicode="&#xc6;" horiz-adv-x="2000" d="M63 117l127 723q32 184 171 286.5t382 102.5h1096q49 0 77 -34.5t19 -82.5q-7 -49 -47 -83t-90 -34h-614l-47 -264h614q49 0 77 -34.5t19 -82.5q-8 -48 -48 -82t-89 -34h-614l-47 -265h614q50 0 77.5 -33.5t18.5 -82.5q-8 -48 -48 -82.5t-89 -34.5h-731q-47 0 -75.5 35 t-20.5 82l65 368h-498l-65 -368q-8 -47 -48 -82t-89 -35t-77 34.5t-20 82.5zM397 690h498l27 148q15 100 -32 153t-179 53q-140 0 -205 -55.5t-84 -161.5z" />
<glyph unicode="&#xc7;" horiz-adv-x="1069" d="M64 239.5q-3 40.5 0 98.5t16 129l67 383q62 364 498 379q18 0 48.5 -0.5t109.5 -10.5t141 -30q62 -29 62.5 -77t-45.5 -88.5t-93 -27.5q-141 43 -213 45q-240 0 -282 -231l-76 -426q-1 -4 -2.5 -11t-2 -27.5t3.5 -39t17.5 -41.5t36.5 -39.5t64.5 -27.5t97.5 -11 q70 0 127 13q2 0 34.5 8.5t50 11.5t42.5 1t37 -13q14 -14 22.5 -34.5t8.5 -45t-23.5 -48.5t-69.5 -40q-77 -25 -153 -33q10 -45 2 -90q-17 -95 -95 -162t-173 -67q-30 0 -48 21.5t-12 51.5q5 29 30 50.5t56 21.5q36 0 64 24.5t34 59.5q5 28 -8 51t-39 35q-99 6 -163 31 q-31 12 -47.5 20t-42 25.5t-38.5 36.5t-27 51.5t-17 73z" />
<glyph unicode="&#xc8;" horiz-adv-x="1185" d="M68 365l86 497q28 166 181 266.5t384 100.5q86 0 160 -21t134 -65t89.5 -122t17.5 -181q-47 -256 -47 -258q-9 -40 -43.5 -68.5t-75.5 -28.5h-635l-16 -86q-16 -99 31.5 -145t189.5 -49h420q36 -1 58 -37.5t14 -75.5t-38.5 -65.5t-68.5 -26.5h-434q-68 0 -131.5 13.5 t-119.5 42.5t-95 70.5t-56 103t-5 135.5zM354 690h537l24 139q19 115 -41.5 165t-187.5 50q-132 0 -209 -50.5t-98 -166.5zM612.5 1560.5q-4.5 31.5 14.5 53.5q19 23 49.5 24.5t56.5 -20.5l144 -123q28 -23 33.5 -55.5t-13.5 -55.5t-52 -22t-59 24l-143 121 q-26 22 -30.5 53.5z" />
<glyph unicode="&#xc9;" horiz-adv-x="1185" d="M68 365l86 497q28 166 181 266.5t384 100.5q86 0 160 -21t134 -65t89.5 -122t17.5 -181q-47 -256 -47 -258q-9 -40 -43.5 -68.5t-75.5 -28.5h-635l-16 -86q-16 -99 31.5 -145t189.5 -49h420q36 -1 58 -37.5t14 -75.5t-38.5 -65.5t-68.5 -26.5h-434q-68 0 -131.5 13.5 t-119.5 42.5t-95 70.5t-56 103t-5 135.5zM354 690h537l24 139q19 115 -41.5 165t-187.5 50q-132 0 -209 -50.5t-98 -166.5zM556 1439.5q6 32.5 34 55.5q141 121 143 123q28 22 58 20.5t49 -24.5q17 -22 12.5 -53t-29.5 -54l-143 -121q-28 -23 -60 -24t-51 22t-13 55.5z" />
<glyph unicode="&#xca;" horiz-adv-x="1185" d="M68 365l86 497q28 166 181 266.5t384 100.5q86 0 160 -21t134 -65t89.5 -122t17.5 -181q-47 -256 -47 -258q-9 -40 -43.5 -68.5t-75.5 -28.5h-635l-16 -86q-16 -101 32.5 -156.5t188.5 -58.5h420q37 -2 58 -28t14 -64q-8 -39 -38.5 -65.5t-68.5 -26.5h-434 q-68 0 -131.5 13.5t-119.5 42.5t-95 70.5t-56 103t-5 135.5zM354 690h537l24 139q19 115 -41.5 165t-187.5 50q-132 0 -209 -50.5t-98 -166.5zM498 1441.5q12 32.5 43 55.5l166 123q24 18 55 18q33 0 51 -18l123 -123q23 -23 23 -55.5t-23 -55.5q-24 -23 -55.5 -22t-55.5 25 l-90 90l-123 -90q-33 -24 -65 -25t-47 22q-14 23 -2 55.5z" />
<glyph unicode="&#xcb;" horiz-adv-x="1185" d="M68 365l86 497q28 166 181 266.5t384 100.5q86 0 160 -21t134 -65t89.5 -122t17.5 -181q-47 -256 -47 -258q-9 -40 -43.5 -68.5t-75.5 -28.5h-635l-16 -86q-16 -99 31.5 -145t189.5 -49h420q36 -1 58 -37.5t14 -75.5t-38.5 -65.5t-68.5 -26.5h-434q-68 0 -131.5 13.5 t-119.5 42.5t-95 70.5t-56 103t-5 135.5zM354 690h537l24 139q19 115 -41.5 165t-187.5 50q-132 0 -209 -50.5t-98 -166.5zM545 1554q6 33 33 58.5t59 25.5t50.5 -23.5t12.5 -55.5q-6 -33 -33 -58.5t-59 -25.5t-50.5 23.5t-12.5 55.5zM776 1554q6 33 34 58.5t58 25.5 q32 0 51 -23.5t13 -55.5q-5 -33 -32.5 -58.5t-59.5 -25.5q-31 0 -50 23.5t-14 55.5z" />
<glyph unicode="&#xcc;" horiz-adv-x="593" d="M63 111l177 1005q7 46 46 79.5t83 33.5t71 -33.5t19 -79.5l-178 -1005q-8 -46 -45.5 -78.5t-83.5 -32.5q-44 0 -70.5 32.5t-18.5 78.5zM233.5 1560.5q-4.5 31.5 14.5 53.5q19 23 49.5 24.5t56.5 -20.5l144 -123q28 -23 33.5 -55.5t-13.5 -55.5t-51.5 -22t-58.5 24 l-144 121q-26 22 -30.5 53.5z" />
<glyph unicode="&#xcd;" horiz-adv-x="655" d="M63 111l177 1005q7 46 46 79.5t83 33.5t71 -33.5t19 -79.5l-178 -1005q-8 -46 -45.5 -78.5t-83.5 -32.5q-44 0 -70.5 32.5t-18.5 78.5zM296 1439.5q6 32.5 34 55.5q141 121 143 123q25 22 56.5 20.5t50.5 -24.5q17 -22 12.5 -53t-29.5 -54l-143 -121q-28 -23 -60 -24 t-51 22t-13 55.5z" />
<glyph unicode="&#xce;" horiz-adv-x="673" d="M63 111l177 1005q7 46 46 79.5t83 33.5t71 -33.5t19 -79.5l-178 -1005q-8 -46 -45.5 -78.5t-83.5 -32.5q-44 0 -70.5 32.5t-18.5 78.5zM150 1441.5q12 32.5 43 55.5l165 123q24 18 56 18q33 0 51 -18l123 -123q23 -23 23 -55.5t-23 -55.5q-24 -23 -55.5 -22t-55.5 25 l-90 90l-123 -90q-33 -24 -65 -25t-47 22q-14 23 -2 55.5z" />
<glyph unicode="&#xcf;" horiz-adv-x="677" d="M63 111l177 1005q7 46 46 79.5t83 33.5t71 -33.5t19 -79.5l-178 -1005q-8 -46 -45.5 -78.5t-83.5 -32.5q-44 0 -70.5 32.5t-18.5 78.5zM227 1554q6 33 33 58.5t59 25.5t51 -23.5t13 -55.5q-6 -33 -33 -58.5t-59 -25.5t-51 23.5t-13 55.5zM459 1554q6 33 34 58.5t58 25.5 q32 0 50.5 -23.5t12.5 -55.5q-5 -33 -32.5 -58.5t-59.5 -25.5q-31 0 -49.5 23.5t-13.5 55.5z" />
<glyph unicode="&#xd0;" horiz-adv-x="1275" d="M70 389l80 455q32 179 171.5 282t378.5 103q144 0 242 -39l27 147q9 56 -14 80.5t-78 24.5q-47 0 -73 29t-18 69q6 42 46.5 70t107.5 28q74 0 129 -22q87 -33 117.5 -107.5t15.5 -167.5l-115 -649h62q32 -1 50.5 -25.5t12.5 -56.5q-6 -33 -33 -56.5t-59 -23.5h-61 l-25 -141q-46 -251 -270 -340q-123 -49 -281 -49q-240 0 -342.5 102.5t-70.5 286.5zM305 401q-19 -105 27.5 -161t183.5 -56q139 0 203.5 55.5t83.5 159.5l22 131h-77q-34 0 -54 24t-14 56q6 34 34 58t62 24h78l25 142q9 47 2.5 85.5t-27.5 66.5t-68 43t-118 15 q-138 0 -203 -55.5t-84 -159.5z" />
<glyph unicode="&#xd1;" horiz-adv-x="1177" d="M63 115l132 743q22 123 99.5 208t186 124t240.5 39q99 0 176.5 -23t132 -69.5t75.5 -123.5t3 -179l-127 -723q-7 -45 -47 -78t-86 -33q-47 0 -74.5 32.5t-19.5 78.5l129 741q18 94 -35.5 141t-153.5 47q-102 0 -175 -47.5t-89 -140.5l-131 -737q-8 -47 -48 -81t-89 -34 t-78 33.5t-21 81.5zM531.5 1535q-2.5 24 19.5 46q74 57 125 57q26 0 50 -10t39 -21.5t30.5 -21t33 -7t37.5 20.5q14 13 35 15.5t35 -10.5q13 -16 7 -38t-23 -34q-77 -55 -123 -55q-29 0 -53 10t-38.5 21.5t-29 21t-31 7t-37.5 -20.5q-25 -23 -49.5 -14t-27 33z" />
<glyph unicode="&#xd2;" d="M70 385l80 455q32 184 170 286.5t380 102.5t344.5 -103t69.5 -288l-80 -453q-32 -180 -171.5 -282.5t-379.5 -102.5q-242 0 -344 101t-69 284zM305 399q-19 -104 26.5 -159.5t184.5 -55.5q138 0 203 55.5t84 159.5l76 428q19 103 -27.5 160t-183.5 57q-139 0 -203.5 -56 t-83.5 -161zM598 1560.5q-5 31.5 14 53.5q19 23 50 24.5t57 -20.5l143 -123q28 -23 34 -55.5t-13 -55.5t-52 -22t-59 24l-143 121q-26 22 -31 53.5z" />
<glyph unicode="&#xd3;" d="M70 385q-33 -183 69 -284t344 -101q240 0 379.5 102.5t171.5 282.5l80 453q33 185 -69.5 288t-344.5 103t-380 -102.5t-170 -286.5zM305 399l76 428q19 105 83.5 161t203.5 56q137 0 183.5 -57t27.5 -160l-76 -428q-19 -104 -84 -159.5t-203 -55.5q-139 0 -184.5 55.5 t-26.5 159.5zM552 1439.5q6 32.5 34 55.5q141 121 143 123q26 21 57.5 20t49.5 -24q17 -22 12.5 -53t-29.5 -54l-143 -121q-28 -23 -60 -24t-51 22t-13 55.5z" />
<glyph unicode="&#xd4;" d="M70 385q-33 -183 69 -284t344 -101q240 0 379.5 102.5t171.5 282.5l80 453q33 185 -69.5 288t-344.5 103t-380 -102.5t-170 -286.5zM305 399l76 428q19 105 83.5 161t203.5 56q137 0 183.5 -57t27.5 -160l-76 -428q-19 -104 -84 -159.5t-203 -55.5q-139 0 -184.5 55.5 t-26.5 159.5zM487 1441.5q12 32.5 43 55.5l166 123q24 18 56 18q33 0 51 -18l123 -123q23 -23 23 -55.5t-23 -55.5q-24 -23 -55.5 -22t-55.5 25l-90 90l-123 -90q-33 -24 -65.5 -25t-47.5 22q-14 23 -2 55.5z" />
<glyph unicode="&#xd5;" d="M70 385q-33 -183 69 -284t344 -101q240 0 379.5 102.5t171.5 282.5l80 453q33 185 -69.5 288t-344.5 103t-380 -102.5t-170 -286.5zM305 399l76 428q19 105 83.5 161t203.5 56q137 0 183.5 -57t27.5 -160l-76 -428q-19 -104 -84 -159.5t-203 -55.5q-139 0 -184.5 55.5 t-26.5 159.5zM535.5 1535q-2.5 24 19.5 46q74 57 125 57q26 0 50 -10t39 -21.5t30.5 -21t33 -7t37.5 20.5q14 13 35 15.5t35 -10.5q13 -16 7 -38t-23 -34q-77 -55 -123 -55q-29 0 -53 10t-38.5 21.5t-29 21t-31 7t-37.5 -20.5q-25 -23 -49.5 -14t-27 33z" />
<glyph unicode="&#xd6;" d="M70 385q-33 -183 69 -284t344 -101q240 0 379.5 102.5t171.5 282.5l80 453q33 185 -69.5 288t-344.5 103t-380 -102.5t-170 -286.5zM305 399l76 428q19 105 83.5 161t203.5 56q137 0 183.5 -57t27.5 -160l-76 -428q-19 -104 -84 -159.5t-203 -55.5q-139 0 -184.5 55.5 t-26.5 159.5zM559 1554q6 33 33 58.5t59 25.5t51 -23.5t13 -55.5q-6 -33 -33 -58.5t-59 -25.5t-51 23.5t-13 55.5zM791 1554q6 33 34 58.5t58 25.5q32 0 50.5 -23.5t12.5 -55.5q-5 -33 -32.5 -58.5t-59.5 -25.5q-31 0 -49.5 23.5t-13.5 55.5z" />
<glyph unicode="&#xd7;" horiz-adv-x="944" d="M63.5 350q7.5 40 40.5 68l232 196l-162 199q-23 34 -14.5 69.5t39.5 65.5q33 29 72 28.5t63 -28.5l162 -196l231 196q34 28 73 28t62 -28q24 -30 17.5 -68.5t-39.5 -66.5l-232 -199l162 -196q22 -34 13.5 -70.5t-38.5 -64.5q-31 -29 -71 -28.5t-64 28.5l-161 196 l-232 -196q-33 -24 -68 -27t-69 27q-24 27 -16.5 67z" />
<glyph unicode="&#xd8;" horiz-adv-x="1185" d="M70 385l80 457q21 108 76.5 187t136 123.5t176 63t206.5 13.5q28 55 73 81.5t89 14.5q44 -14 62 -55.5t-2 -87.5q194 -93 149 -342l-80 -455q-33 -186 -192 -292t-404 -91q-21 -55 -67.5 -81.5t-93.5 -14.5q-44 12 -61 53.5t3 87.5q-194 89 -151 338zM305 399 q-13 -88 12 -135l347 780q-138 -1 -201 -56t-82 -159zM522 184q134 1 199 57t84 158l76 430q13 88 -13 136z" />
<glyph unicode="&#xd9;" horiz-adv-x="1177" d="M70 395l127 721q7 47 47 80t88 33q46 0 73.5 -33t20.5 -80l-131 -739q-17 -94 36 -141.5t154 -47.5t174 47.5t89 141.5l131 737q7 47 48 81t91 34q47 0 75.5 -34t20.5 -81l-131 -743q-22 -123 -99.5 -208t-186 -124t-240.5 -39q-98 0 -175.5 23t-132 69.5t-76 123.5 t-3.5 179zM495.5 1560.5q-4.5 31.5 14.5 53.5q19 23 49.5 24.5t56.5 -20.5l144 -123q28 -23 33.5 -55.5t-13.5 -55.5t-51.5 -22t-58.5 24l-144 121q-26 22 -30.5 53.5z" />
<glyph unicode="&#xda;" horiz-adv-x="1177" d="M70 395l127 721q7 47 47 80t88 33q46 0 73.5 -33t20.5 -80l-131 -739q-17 -94 36 -141.5t154 -47.5t174 47.5t89 141.5l131 737q7 47 48 81t91 34q47 0 75.5 -34t20.5 -81l-131 -743q-22 -123 -99.5 -208t-186 -124t-240.5 -39q-98 0 -175.5 23t-132 69.5t-76 123.5 t-3.5 179zM574.5 1439.5q5.5 32.5 33.5 55.5q142 121 144 123q26 21 56.5 20t49.5 -24q17 -22 13 -53t-29 -54l-144 -121q-28 -23 -59.5 -24t-50.5 22t-13.5 55.5z" />
<glyph unicode="&#xdb;" horiz-adv-x="1177" d="M70 395l127 721q7 47 47 80t88 33q46 0 73.5 -33t20.5 -80l-131 -739q-17 -94 36 -141.5t154 -47.5t174 47.5t89 141.5l131 737q7 47 48 81t91 34q47 0 75.5 -34t20.5 -81l-131 -743q-22 -123 -99.5 -208t-186 -124t-240.5 -39q-98 0 -175.5 23t-132 69.5t-76 123.5 t-3.5 179zM446.5 1441.5q11.5 32.5 42.5 55.5l166 123q24 18 56 18q33 0 51 -18l123 -123q23 -23 23 -55.5t-23 -55.5q-24 -23 -55.5 -22t-55.5 25l-90 90l-123 -90q-33 -24 -65 -25t-47 22q-14 23 -2.5 55.5z" />
<glyph unicode="&#xdc;" horiz-adv-x="1177" d="M70 395l127 721q7 47 47 80t88 33q46 0 73.5 -33t20.5 -80l-131 -739q-17 -94 36 -141.5t154 -47.5t174 47.5t89 141.5l131 737q7 47 48 81t91 34q47 0 75.5 -34t20.5 -81l-131 -743q-22 -123 -99.5 -208t-186 -124t-240.5 -39q-98 0 -175.5 23t-132 69.5t-76 123.5 t-3.5 179zM494 1554q6 33 33 58.5t59 25.5t50.5 -23.5t12.5 -55.5q-6 -33 -33 -58.5t-59 -25.5t-50.5 23.5t-12.5 55.5zM725 1554q6 33 34 58.5t58 25.5q32 0 51 -23.5t13 -55.5q-5 -32 -33 -58t-60 -26q-31 0 -49.5 23.5t-13.5 55.5z" />
<glyph unicode="&#xdd;" horiz-adv-x="1011" d="M70 1055q-15 42 5.5 88t65.5 71q46 24 91.5 11t58.5 -54l149 -438l301 438q29 42 79.5 54.5t86.5 -11.5q38 -25 42 -70.5t-27 -88.5l-410 -570l-66 -368q-8 -47 -48 -82t-87 -35q-49 0 -77 34.5t-19 82.5l66 368zM410.5 1439.5q5.5 32.5 33.5 55.5q142 121 144 123 q26 22 56.5 20.5t49.5 -24.5q17 -22 13 -53t-29 -54l-143 -121q-28 -23 -60 -24t-51 22t-13.5 55.5z" />
<glyph unicode="&#xe0;" horiz-adv-x="1224" d="M63 117l127 725q33 184 171.5 285.5t381.5 101.5q240 0 342.5 -102t69.5 -287l-127 -723q-8 -48 -48 -82.5t-89 -34.5q-47 0 -75.5 35t-20.5 82l65 368h-498l-65 -368q-8 -46 -49 -81.5t-88 -35.5q-49 0 -77 34.5t-20 82.5zM397 690h498l25 137q19 104 -27.5 160.5 t-181.5 56.5q-140 0 -205 -55.5t-84 -161.5zM628.5 1560.5q-4.5 31.5 14.5 53.5q19 23 50 24.5t57 -20.5l143 -123q28 -23 33.5 -55.5t-13.5 -55.5t-51.5 -22t-58.5 24l-144 121q-26 22 -30.5 53.5z" />
<glyph unicode="&#xe1;" horiz-adv-x="1224" d="M63 117l127 725q33 184 171.5 285.5t381.5 101.5q240 0 342.5 -102t69.5 -287l-127 -723q-8 -48 -48 -82.5t-89 -34.5q-47 0 -75.5 35t-20.5 82l65 368h-498l-65 -368q-8 -46 -49 -81.5t-88 -35.5q-49 0 -77 34.5t-20 82.5zM397 690h498l25 137q19 104 -27.5 160.5 t-181.5 56.5q-140 0 -205 -55.5t-84 -161.5zM617.5 1439.5q5.5 32.5 33.5 55.5q142 121 144 123q26 21 56.5 20t49.5 -24q17 -22 13 -53t-29 -54l-144 -121q-28 -23 -59.5 -24t-50.5 22t-13.5 55.5z" />
<glyph unicode="&#xe2;" horiz-adv-x="1224" d="M63 117l127 725q33 184 171.5 285.5t381.5 101.5q240 0 342.5 -102t69.5 -287l-127 -723q-8 -48 -48 -82.5t-89 -34.5q-47 0 -75.5 35t-20.5 82l65 368h-498l-65 -368q-8 -46 -49 -81.5t-88 -35.5q-49 0 -77 34.5t-20 82.5zM397 690h498l25 137q19 104 -27.5 160.5 t-181.5 56.5q-140 0 -205 -55.5t-84 -161.5zM526 1441.5q12 32.5 43 55.5l166 123q24 18 56 18q33 0 51 -18l123 -123q23 -23 23 -55.5t-23 -55.5q-24 -23 -55.5 -22t-55.5 25l-90 90l-123 -90q-33 -24 -65.5 -25t-47.5 22q-14 23 -2 55.5z" />
<glyph unicode="&#xe3;" horiz-adv-x="1224" d="M63 117l127 725q33 184 171.5 285.5t381.5 101.5q240 0 342.5 -102t69.5 -287l-127 -723q-8 -48 -48 -82.5t-89 -34.5q-47 0 -75.5 35t-20.5 82l65 368h-498l-65 -368q-8 -46 -49 -81.5t-88 -35.5q-49 0 -77 34.5t-20 82.5zM397 690h498l25 137q19 104 -27.5 160.5 t-181.5 56.5q-140 0 -205 -55.5t-84 -161.5zM568.5 1535q-2.5 24 19.5 46q74 57 125 57q26 0 50 -10t39 -21.5t30.5 -21t33 -7t37.5 20.5q14 13 35 15.5t35 -10.5q13 -16 6.5 -38t-23.5 -34q-77 -55 -122 -55q-29 0 -53 10t-38.5 21.5t-29 21t-31 7t-37.5 -20.5 q-25 -23 -49.5 -14t-27 33z" />
<glyph unicode="&#xe4;" horiz-adv-x="1224" d="M63 117l127 725q33 184 171.5 285.5t381.5 101.5q240 0 342.5 -102t69.5 -287l-127 -723q-8 -48 -48 -82.5t-89 -34.5q-47 0 -75.5 35t-20.5 82l65 368h-498l-65 -368q-8 -46 -49 -81.5t-88 -35.5q-49 0 -77 34.5t-20 82.5zM397 690h498l25 137q19 104 -27.5 160.5 t-181.5 56.5q-140 0 -205 -55.5t-84 -161.5zM592 1554q6 33 33 58.5t59 25.5t51 -23.5t13 -55.5q-6 -33 -33.5 -58.5t-59.5 -25.5t-50.5 23.5t-12.5 55.5zM823 1554q6 33 34 58.5t58 25.5q32 0 51 -23.5t13 -55.5q-5 -33 -32.5 -58.5t-59.5 -25.5q-31 0 -50 23.5t-14 55.5z " />
<glyph unicode="&#xe5;" horiz-adv-x="1224" d="M63 117l127 725q33 184 171.5 285.5t381.5 101.5q240 0 342.5 -102t69.5 -287l-127 -723q-8 -48 -48 -82.5t-89 -34.5q-47 0 -75.5 35t-20.5 82l65 368h-498l-65 -368q-8 -46 -49 -81.5t-88 -35.5q-49 0 -77 34.5t-20 82.5zM397 690h498l25 137q19 104 -27.5 160.5 t-181.5 56.5q-140 0 -205 -55.5t-84 -161.5zM641 1501q11 57 58 97t104 40t89.5 -40t22.5 -97q-9 -57 -56.5 -97t-104.5 -40t-90 40t-23 97zM737 1501q-3 -17 7.5 -29t27.5 -12t30.5 12t16.5 29t-6.5 29t-26.5 12t-31.5 -12t-17.5 -29z" />
<glyph unicode="&#xe6;" horiz-adv-x="2000" d="M63 117l127 723q32 184 171 286.5t382 102.5h1096q49 0 77 -34.5t19 -82.5q-7 -49 -47 -83t-90 -34h-614l-47 -264h614q49 0 77 -34.5t19 -82.5q-8 -48 -48 -82t-89 -34h-614l-47 -265h614q50 0 77.5 -33.5t18.5 -82.5q-8 -48 -48 -82.5t-89 -34.5h-731q-47 0 -75.5 35 t-20.5 82l65 368h-498l-65 -368q-8 -47 -48 -82t-89 -35t-77 34.5t-20 82.5zM397 690h498l27 148q15 100 -32 153t-179 53q-140 0 -205 -55.5t-84 -161.5z" />
<glyph unicode="&#xe7;" horiz-adv-x="1069" d="M64 239.5q-3 40.5 0 98.5t16 129l67 383q62 364 498 379q18 0 48.5 -0.5t109.5 -10.5t141 -30q62 -29 62.5 -77t-45.5 -88.5t-93 -27.5q-141 43 -213 45q-240 0 -282 -231l-76 -426q-1 -4 -2.5 -11t-2 -27.5t3.5 -39t17.5 -41.5t36.5 -39.5t64.5 -27.5t97.5 -11 q70 0 127 13q2 0 34.5 8.5t50 11.5t42.5 1t37 -13q14 -14 22.5 -34.5t8.5 -45t-23.5 -48.5t-69.5 -40q-77 -25 -153 -33q10 -45 2 -90q-17 -95 -95 -162t-173 -67q-30 0 -48 21.5t-12 51.5q5 29 30 50.5t56 21.5q36 0 64 24.5t34 59.5q5 28 -8 51t-39 35q-99 6 -163 31 q-31 12 -47.5 20t-42 25.5t-38.5 36.5t-27 51.5t-17 73z" />
<glyph unicode="&#xe8;" horiz-adv-x="1185" d="M68 365l86 497q28 166 181 266.5t384 100.5q86 0 160 -21t134 -65t89.5 -122t17.5 -181q-47 -256 -47 -258q-9 -40 -43.5 -68.5t-75.5 -28.5h-635l-16 -86q-16 -99 31.5 -145t189.5 -49h420q36 -1 58 -37.5t14 -75.5t-38.5 -65.5t-68.5 -26.5h-434q-68 0 -131.5 13.5 t-119.5 42.5t-95 70.5t-56 103t-5 135.5zM354 690h537l24 139q19 115 -41.5 165t-187.5 50q-132 0 -209 -50.5t-98 -166.5zM596 1560.5q-5 31.5 14 53.5q19 23 50 24.5t57 -20.5l143 -123q28 -23 34 -55.5t-13 -55.5t-52 -22t-59 24l-143 121q-26 22 -31 53.5z" />
<glyph unicode="&#xe9;" horiz-adv-x="1185" d="M68 365l86 497q28 166 181 266.5t384 100.5q86 0 160 -21t134 -65t89.5 -122t17.5 -181q-47 -256 -47 -258q-9 -40 -43.5 -68.5t-75.5 -28.5h-635l-16 -86q-16 -99 31.5 -145t189.5 -49h420q36 -1 58 -37.5t14 -75.5t-38.5 -65.5t-68.5 -26.5h-434q-68 0 -131.5 13.5 t-119.5 42.5t-95 70.5t-56 103t-5 135.5zM354 690h537l24 139q19 115 -41.5 165t-187.5 50q-132 0 -209 -50.5t-98 -166.5zM570.5 1439.5q5.5 32.5 33.5 55.5q142 121 144 123q26 22 56.5 20.5t49.5 -24.5q17 -22 13 -53t-29 -54l-144 -121q-28 -23 -59.5 -24t-50.5 22 t-13.5 55.5z" />
<glyph unicode="&#xea;" horiz-adv-x="1185" d="M68 365l86 497q28 166 181 266.5t384 100.5q86 0 160 -21t134 -65t89.5 -122t17.5 -181q-47 -256 -47 -258q-9 -40 -43.5 -68.5t-75.5 -28.5h-635l-16 -86q-16 -99 31.5 -145t189.5 -49h420q36 -1 58 -37.5t14 -75.5t-38.5 -65.5t-68.5 -26.5h-434q-68 0 -131.5 13.5 t-119.5 42.5t-95 70.5t-56 103t-5 135.5zM354 690h537l24 139q19 115 -41.5 165t-187.5 50q-132 0 -209 -50.5t-98 -166.5zM516 1441.5q12 32.5 43 55.5l166 123q24 18 55 18q33 0 51 -18l123 -123q23 -23 23 -55.5t-23 -55.5q-24 -23 -55 -22t-55 25l-90 90l-123 -90 q-33 -24 -65.5 -25t-47.5 22q-14 23 -2 55.5z" />
<glyph unicode="&#xeb;" horiz-adv-x="1185" d="M68 365l86 497q28 166 181 266.5t384 100.5q86 0 160 -21t134 -65t89.5 -122t17.5 -181q-47 -256 -47 -258q-9 -40 -43.5 -68.5t-75.5 -28.5h-635l-16 -86q-16 -99 31.5 -145t189.5 -49h420q36 -1 58 -37.5t14 -75.5t-38.5 -65.5t-68.5 -26.5h-434q-68 0 -131.5 13.5 t-119.5 42.5t-95 70.5t-56 103t-5 135.5zM354 690h537l24 139q19 115 -41.5 165t-187.5 50q-132 0 -209 -50.5t-98 -166.5zM541 1554q6 33 33 58.5t59 25.5t50.5 -23.5t12.5 -55.5q-6 -33 -33 -58.5t-59 -25.5t-50.5 23.5t-12.5 55.5zM772 1554q6 33 34 58.5t58 25.5 q32 0 51 -23.5t13 -55.5q-5 -33 -32.5 -58.5t-59.5 -25.5q-31 0 -50 23.5t-14 55.5z" />
<glyph unicode="&#xec;" horiz-adv-x="593" d="M63 111l177 1005q7 46 46 79.5t83 33.5t71 -33.5t19 -79.5l-178 -1005q-8 -46 -45.5 -78.5t-83.5 -32.5q-44 0 -70.5 32.5t-18.5 78.5zM233.5 1560.5q-4.5 31.5 14.5 53.5q19 23 49.5 24.5t56.5 -20.5l144 -123q28 -23 33.5 -55.5t-13.5 -55.5t-51.5 -22t-58.5 24 l-144 121q-26 22 -30.5 53.5z" />
<glyph unicode="&#xed;" horiz-adv-x="655" d="M63 111l177 1005q7 46 46 79.5t83 33.5t71 -33.5t19 -79.5l-178 -1005q-8 -46 -45.5 -78.5t-83.5 -32.5q-44 0 -70.5 32.5t-18.5 78.5zM296 1439.5q6 32.5 34 55.5q141 121 143 123q26 22 57 20.5t50 -24.5q17 -22 12.5 -53t-29.5 -54l-143 -121q-28 -23 -60 -24t-51 22 t-13 55.5z" />
<glyph unicode="&#xee;" horiz-adv-x="673" d="M63 111l177 1005q7 46 46 79.5t83 33.5t71 -33.5t19 -79.5l-178 -1005q-8 -46 -45.5 -78.5t-83.5 -32.5q-44 0 -70.5 32.5t-18.5 78.5zM150 1441.5q12 32.5 43 55.5l165 123q24 18 56 18q33 0 51 -18l123 -123q23 -23 23 -55.5t-23 -55.5q-24 -23 -55.5 -22t-55.5 25 l-90 90l-123 -90q-33 -24 -65 -25t-47 22q-14 23 -2 55.5z" />
<glyph unicode="&#xef;" horiz-adv-x="677" d="M63 111l177 1005q7 46 46 79.5t83 33.5t71 -33.5t19 -79.5l-178 -1005q-8 -46 -45.5 -78.5t-83.5 -32.5q-44 0 -70.5 32.5t-18.5 78.5zM227 1554q6 33 33 58.5t59 25.5t51 -23.5t13 -55.5q-6 -33 -33 -58.5t-59 -25.5t-51 23.5t-13 55.5zM459 1554q6 33 34 58.5t58 25.5 q32 0 50.5 -23.5t12.5 -55.5q-5 -33 -32.5 -58.5t-59.5 -25.5q-31 0 -49.5 23.5t-13.5 55.5z" />
<glyph unicode="&#xf0;" horiz-adv-x="1275" d="M70 389l80 455q32 179 171.5 282t378.5 103q144 0 242 -39l27 147q9 56 -14 80.5t-78 24.5q-47 0 -73 29t-18 69q6 42 46.5 70t107.5 28q74 0 129 -22q87 -33 117.5 -107.5t15.5 -167.5l-115 -649h62q32 -1 50.5 -25.5t12.5 -56.5q-6 -33 -33 -56.5t-59 -23.5h-61 l-25 -141q-46 -251 -270 -340q-123 -49 -281 -49q-240 0 -342.5 102.5t-70.5 286.5zM305 401q-19 -105 27.5 -161t183.5 -56q139 0 203.5 55.5t83.5 159.5l22 131h-77q-34 0 -54 24t-14 56q6 34 34 58t62 24h78l25 142q9 47 2.5 85.5t-27.5 66.5t-68 43t-118 15 q-138 0 -203 -55.5t-84 -159.5z" />
<glyph unicode="&#xf1;" horiz-adv-x="1177" d="M63 115l132 743q22 123 99.5 208t186 124t240.5 39q99 0 176.5 -23t132 -69.5t75.5 -123.5t3 -179l-127 -723q-7 -45 -47 -78t-86 -33q-47 0 -74.5 32.5t-19.5 78.5l129 741q18 94 -35.5 141t-153.5 47q-102 0 -175 -47.5t-89 -140.5l-131 -737q-8 -47 -48 -81t-89 -34 t-78 33.5t-21 81.5zM527.5 1535q-2.5 24 19.5 46q74 57 125 57q26 0 50 -10t39 -21.5t30.5 -21t33 -7t37.5 20.5q14 13 35 15.5t35 -10.5q13 -16 6.5 -38t-23.5 -34q-77 -55 -122 -55q-29 0 -53 10t-38.5 21.5t-29 21t-31 7t-37.5 -20.5q-25 -23 -49.5 -14t-27 33z" />
<glyph unicode="&#xf2;" d="M70 385l80 455q32 184 170 286.5t380 102.5t344.5 -103t69.5 -288l-80 -453q-32 -180 -171.5 -282.5t-379.5 -102.5q-242 0 -344 101t-69 284zM305 399q-19 -104 26.5 -159.5t184.5 -55.5q138 0 203 55.5t84 159.5l76 428q19 103 -27.5 160t-183.5 57q-139 0 -203.5 -56 t-83.5 -161zM598 1560.5q-5 31.5 14 53.5q19 23 50 24.5t57 -20.5l143 -123q28 -23 34 -55.5t-13 -55.5t-52 -22t-59 24l-143 121q-26 22 -31 53.5z" />
<glyph unicode="&#xf3;" d="M70 385q-33 -183 69 -284t344 -101q240 0 379.5 102.5t171.5 282.5l80 453q33 185 -69.5 288t-344.5 103t-380 -102.5t-170 -286.5zM305 399l76 428q19 105 83.5 161t203.5 56q137 0 183.5 -57t27.5 -160l-76 -428q-19 -104 -84 -159.5t-203 -55.5q-139 0 -184.5 55.5 t-26.5 159.5zM552 1439.5q6 32.5 34 55.5q141 121 143 123q26 22 57 20.5t50 -24.5q17 -22 12.5 -53t-29.5 -54l-143 -121q-28 -23 -60 -24t-51 22t-13 55.5z" />
<glyph unicode="&#xf4;" d="M70 385q-33 -183 69 -284t344 -101q240 0 379.5 102.5t171.5 282.5l80 453q33 185 -69.5 288t-344.5 103t-380 -102.5t-170 -286.5zM305 399l76 428q19 105 83.5 161t203.5 56q137 0 183.5 -57t27.5 -160l-76 -428q-19 -104 -84 -159.5t-203 -55.5q-139 0 -184.5 55.5 t-26.5 159.5zM487 1441.5q12 32.5 43 55.5l166 123q24 18 56 18q33 0 51 -18l123 -123q23 -23 23 -55.5t-23 -55.5q-24 -23 -55.5 -22t-55.5 25l-90 90l-123 -90q-33 -24 -65.5 -25t-47.5 22q-14 23 -2 55.5z" />
<glyph unicode="&#xf5;" d="M70 385q-33 -183 69 -284t344 -101q240 0 379.5 102.5t171.5 282.5l80 453q33 185 -69.5 288t-344.5 103t-380 -102.5t-170 -286.5zM305 399l76 428q19 105 83.5 161t203.5 56q137 0 183.5 -57t27.5 -160l-76 -428q-19 -104 -84 -159.5t-203 -55.5q-139 0 -184.5 55.5 t-26.5 159.5zM535.5 1535q-2.5 24 19.5 46q74 57 125 57q26 0 50 -10t39 -21.5t30.5 -21t33 -7t37.5 20.5q14 13 35 15.5t35 -10.5q13 -16 7 -38t-23 -34q-77 -55 -123 -55q-29 0 -53 10t-38.5 21.5t-29 21t-31 7t-37.5 -20.5q-25 -23 -49.5 -14t-27 33z" />
<glyph unicode="&#xf6;" d="M70 385q-33 -183 69 -284t344 -101q240 0 379.5 102.5t171.5 282.5l80 453q33 185 -69.5 288t-344.5 103t-380 -102.5t-170 -286.5zM305 399l76 428q19 105 83.5 161t203.5 56q137 0 183.5 -57t27.5 -160l-76 -428q-19 -104 -84 -159.5t-203 -55.5q-139 0 -184.5 55.5 t-26.5 159.5zM559 1554q6 33 33 58.5t59 25.5t51 -23.5t13 -55.5q-6 -33 -33 -58.5t-59 -25.5t-51 23.5t-13 55.5zM791 1554q6 33 34 58.5t58 25.5q32 0 50.5 -23.5t12.5 -55.5q-5 -33 -32.5 -58.5t-59.5 -25.5q-31 0 -49.5 23.5t-13.5 55.5z" />
<glyph unicode="&#xf7;" horiz-adv-x="1067" d="M63 614q6 40 39.5 68.5t73.5 28.5h750q40 0 63 -28.5t15 -68.5q-6 -40 -39.5 -68t-73.5 -28h-750q-37 0 -60.5 28.5t-17.5 67.5zM367 287q9 51 47 85t84 34q44 0 70 -33.5t18 -79.5q-9 -50 -46.5 -83.5t-82.5 -33.5t-71.5 32.5t-18.5 78.5zM483 942q8 46 45.5 79.5 t81.5 33.5q45 0 71.5 -33.5t18.5 -79.5q-9 -50 -46.5 -83.5t-82.5 -33.5q-46 0 -71.5 33t-16.5 84z" />
<glyph unicode="&#xf8;" horiz-adv-x="1185" d="M70 385l80 457q21 108 76.5 187t136 123.5t176 63t206.5 13.5q28 55 73 81.5t89 14.5q44 -14 62 -55.5t-2 -87.5q194 -93 149 -342l-80 -455q-33 -186 -192 -292t-404 -91q-21 -55 -67.5 -81.5t-93.5 -14.5q-44 12 -61 53.5t3 87.5q-196 90 -151 338zM305 399 q-13 -88 12 -135l347 780q-138 -1 -201 -56t-82 -159zM522 184q134 1 199 57t84 158l76 430q13 88 -13 136z" />
<glyph unicode="&#xf9;" horiz-adv-x="1177" d="M70 395l127 721q7 47 47 80t88 33q46 0 73.5 -33t20.5 -80l-131 -739q-17 -94 36 -141.5t154 -47.5t174 47.5t89 141.5l131 737q7 47 48 81t91 34q47 0 75.5 -34t20.5 -81l-131 -743q-22 -123 -99.5 -208t-186 -124t-240.5 -39q-98 0 -175.5 23t-132 69.5t-76 123.5 t-3.5 179zM495.5 1560.5q-4.5 31.5 14.5 53.5q19 23 49.5 24.5t56.5 -20.5l144 -123q28 -23 33.5 -55.5t-13.5 -55.5t-51.5 -22t-58.5 24l-144 121q-26 22 -30.5 53.5z" />
<glyph unicode="&#xfa;" horiz-adv-x="1177" d="M70 395l127 721q7 47 47 80t88 33q46 0 73.5 -33t20.5 -80l-131 -739q-17 -94 36 -141.5t154 -47.5t174 47.5t89 141.5l131 737q7 47 48 81t91 34q47 0 75.5 -34t20.5 -81l-131 -743q-22 -123 -99.5 -208t-186 -124t-240.5 -39q-98 0 -175.5 23t-132 69.5t-76 123.5 t-3.5 179zM574.5 1439.5q5.5 32.5 33.5 55.5q142 121 144 123q26 22 56.5 20.5t49.5 -24.5q17 -22 13 -53t-29 -54l-144 -121q-28 -23 -59.5 -24t-50.5 22t-13.5 55.5z" />
<glyph unicode="&#xfb;" horiz-adv-x="1177" d="M70 395l127 721q7 47 47 80t88 33q46 0 73.5 -33t20.5 -80l-131 -739q-17 -94 36 -141.5t154 -47.5t174 47.5t89 141.5l131 737q7 47 48 81t91 34q47 0 75.5 -34t20.5 -81l-131 -743q-22 -123 -99.5 -208t-186 -124t-240.5 -39q-98 0 -175.5 23t-132 69.5t-76 123.5 t-3.5 179zM446.5 1441.5q11.5 32.5 42.5 55.5l166 123q24 18 56 18q33 0 51 -18l123 -123q23 -23 23 -55.5t-23 -55.5q-24 -23 -55.5 -22t-55.5 25l-90 90l-123 -90q-33 -24 -65 -25t-47 22q-14 23 -2.5 55.5z" />
<glyph unicode="&#xfc;" horiz-adv-x="1177" d="M70 395l127 721q7 47 47 80t88 33q46 0 73.5 -33t20.5 -80l-131 -739q-17 -94 36 -141.5t154 -47.5t174 47.5t89 141.5l131 737q7 47 48 81t91 34q47 0 75.5 -34t20.5 -81l-131 -743q-22 -123 -99.5 -208t-186 -124t-240.5 -39q-98 0 -175.5 23t-132 69.5t-76 123.5 t-3.5 179zM494 1554q6 33 33 58.5t59 25.5t50.5 -23.5t12.5 -55.5q-6 -33 -33 -58.5t-59 -25.5t-50.5 23.5t-12.5 55.5zM725 1554q6 33 34 58.5t58 25.5q32 0 51 -23.5t13 -55.5q-5 -32 -33 -58t-60 -26q-31 0 -49.5 23.5t-13.5 55.5z" />
<glyph unicode="&#xfd;" horiz-adv-x="1011" d="M70 1055q-15 42 5.5 88t65.5 71q46 24 91.5 11t58.5 -54l149 -438l301 438q29 42 79.5 54.5t86.5 -11.5q38 -25 42 -70.5t-27 -88.5l-410 -570l-66 -368q-8 -47 -48 -82t-87 -35q-49 0 -77 34.5t-19 82.5l66 368zM410.5 1439.5q5.5 32.5 33.5 55.5q142 121 144 123 q26 21 56.5 20t49.5 -24q17 -22 13 -53t-29 -54l-143 -121q-28 -23 -60 -24t-51 22t-13.5 55.5z" />
<glyph unicode="&#xff;" horiz-adv-x="1011" d="M70 1055q-15 42 5.5 88t65.5 71q46 24 91.5 11t58.5 -54l149 -438l301 438q29 42 79.5 54.5t86.5 -11.5q38 -25 42 -70.5t-27 -88.5l-410 -570l-66 -368q-8 -47 -48 -82t-87 -35q-49 0 -77 34.5t-19 82.5l66 368zM383 1554q6 33 33 58.5t59 25.5t51 -23.5t13 -55.5 q-6 -33 -33.5 -58.5t-59.5 -25.5t-50.5 23.5t-12.5 55.5zM614 1554q6 33 34 58.5t59 25.5q32 0 50.5 -23.5t12.5 -55.5q-5 -33 -32.5 -58.5t-59.5 -25.5q-31 0 -50 23.5t-14 55.5z" />
<glyph unicode="&#x152;" horiz-adv-x="1959" d="M70 385l80 455q33 184 170.5 286.5t379.5 102.5h1098q49 0 77 -34.5t19 -82.5q-9 -49 -49 -83t-88 -34h-614l-47 -264h614q49 0 77 -34.5t19 -82.5q-8 -48 -48 -82t-89 -34h-614l-47 -265h614q50 0 77.5 -33.5t18.5 -82.5q-8 -48 -48 -82.5t-89 -34.5h-1098 q-241 0 -343 100.5t-70 284.5zM305 399q-19 -104 27 -159.5t186 -55.5q137 0 202.5 56t84.5 159l74 428q19 104 -27.5 160.5t-181.5 56.5q-140 0 -205 -55.5t-84 -161.5z" />
<glyph unicode="&#x153;" horiz-adv-x="1959" d="M70 385l80 455q33 184 170.5 286.5t379.5 102.5h1098q49 0 77 -34.5t19 -82.5q-9 -49 -49 -83t-88 -34h-614l-47 -264h614q49 0 77 -34.5t19 -82.5q-8 -48 -48 -82t-89 -34h-614l-47 -265h614q50 0 77.5 -33.5t18.5 -82.5q-8 -48 -48 -82.5t-89 -34.5h-1098 q-241 0 -343 100.5t-70 284.5zM305 399q-19 -104 27 -159.5t186 -55.5q137 0 202.5 56t84.5 159l74 428q19 104 -27.5 160.5t-181.5 56.5q-140 0 -205 -55.5t-84 -161.5z" />
<glyph unicode="&#x178;" horiz-adv-x="1011" d="M70 1055q-15 42 5.5 88t65.5 71q46 24 91.5 11t58.5 -54l149 -438l301 438q29 42 79.5 54.5t86.5 -11.5q38 -25 42 -70.5t-27 -88.5l-410 -570l-66 -368q-8 -47 -48 -82t-87 -35q-49 0 -77 34.5t-19 82.5l66 368zM383 1554q6 33 33 58.5t59 25.5t51 -23.5t13 -55.5 q-6 -33 -33.5 -58.5t-59.5 -25.5t-50.5 23.5t-12.5 55.5zM614 1554q6 33 34 58.5t59 25.5q32 0 50.5 -23.5t12.5 -55.5q-5 -33 -32.5 -58.5t-59.5 -25.5q-31 0 -50 23.5t-14 55.5z" />
<glyph unicode="&#x2c6;" horiz-adv-x="591" d="M68 1441.5q12 32.5 43 55.5l165 123q24 18 56 18q33 0 51 -18l123 -123q23 -23 23 -55.5t-23 -55.5q-24 -23 -55.5 -22t-55.5 25l-90 90l-123 -90q-33 -24 -65 -25t-47 22q-14 23 -2 55.5z" />
<glyph unicode="&#x2dc;" horiz-adv-x="538" d="M62.5 1535q-2.5 24 19.5 46q74 57 125 57q26 0 50 -10t39 -21.5t30.5 -21t33 -7t37.5 20.5q14 13 35 15.5t35 -10.5q13 -16 7 -38t-23 -34q-77 -55 -123 -55q-29 0 -53 10t-38.5 21.5t-29 21t-31 7t-37.5 -20.5q-25 -23 -49.5 -14t-27 33z" />
<glyph unicode="&#x2000;" horiz-adv-x="819" />
<glyph unicode="&#x2001;" horiz-adv-x="1638" />
<glyph unicode="&#x2002;" horiz-adv-x="819" />
<glyph unicode="&#x2003;" horiz-adv-x="1638" />
<glyph unicode="&#x2004;" horiz-adv-x="546" />
<glyph unicode="&#x2005;" horiz-adv-x="409" />
<glyph unicode="&#x2006;" horiz-adv-x="273" />
<glyph unicode="&#x2007;" horiz-adv-x="273" />
<glyph unicode="&#x2008;" horiz-adv-x="204" />
<glyph unicode="&#x2009;" horiz-adv-x="327" />
<glyph unicode="&#x200a;" horiz-adv-x="91" />
<glyph unicode="&#x2010;" horiz-adv-x="1050" d="M53 614q8 43 43.5 74t79.5 31h735q43 0 68.5 -31t17.5 -74q-7 -43 -43.5 -73.5t-79.5 -30.5h-735q-44 0 -69 30.5t-17 73.5z" />
<glyph unicode="&#x2011;" horiz-adv-x="1050" d="M53 614q8 43 43.5 74t79.5 31h735q43 0 68.5 -31t17.5 -74q-7 -43 -43.5 -73.5t-79.5 -30.5h-735q-44 0 -69 30.5t-17 73.5z" />
<glyph unicode="&#x2012;" horiz-adv-x="1050" d="M53 614q8 43 43.5 74t79.5 31h735q43 0 68.5 -31t17.5 -74q-7 -43 -43.5 -73.5t-79.5 -30.5h-735q-44 0 -69 30.5t-17 73.5z" />
<glyph unicode="&#x2013;" horiz-adv-x="1125" d="M53 614q9 43 47 74t86 31h794q46 0 74 -31t19 -74q-8 -43 -47 -73.5t-86 -30.5h-794q-48 0 -75 30.5t-18 73.5z" />
<glyph unicode="&#x2014;" horiz-adv-x="2150" d="M55 614q17 43 94 74t172 31h1588q93 0 148 -31t38 -74q-15 -43 -94 -73.5t-172 -30.5h-1588q-95 0 -149 30.5t-37 73.5z" />
<glyph unicode="&#x2018;" horiz-adv-x="387" d="M63 1290l41 238q7 45 45.5 77.5t83.5 32.5t71.5 -32.5t19.5 -77.5l-43 -238q-7 -45 -44.5 -76.5t-82.5 -31.5q-46 0 -72 31t-19 77z" />
<glyph unicode="&#x2019;" horiz-adv-x="387" d="M63 1290l41 238q7 45 45.5 77.5t83.5 32.5t71.5 -32.5t19.5 -77.5l-43 -238q-7 -45 -44.5 -76.5t-82.5 -31.5q-46 0 -72 31t-19 77z" />
<glyph unicode="&#x201a;" horiz-adv-x="389" d="M63 -121l43 238q7 46 45.5 78t84.5 32q45 0 71 -32.5t17 -77.5l-41 -238q-8 -45 -45 -76.5t-84 -31.5q-44 0 -71 32t-20 76z" />
<glyph unicode="&#x201c;" horiz-adv-x="714" d="M63 1292l43 238q7 45 44.5 76.5t82.5 31.5q46 0 72 -31t19 -77l-43 -238q-7 -46 -45 -78t-82 -32q-46 0 -72.5 32t-18.5 78zM391 1292l41 238q7 45 45.5 76.5t83.5 31.5t71 -31.5t19 -76.5l-43 -238q-7 -46 -45 -78t-82 -32q-46 0 -72 32t-18 78z" />
<glyph unicode="&#x201d;" horiz-adv-x="714" d="M63 1292l43 238q7 45 44.5 76.5t82.5 31.5q46 0 72 -31t19 -77l-43 -238q-7 -46 -45 -78t-82 -32q-46 0 -72.5 32t-18.5 78zM391 1292l41 238q7 45 45.5 76.5t83.5 31.5t71 -31.5t19 -76.5l-43 -238q-7 -46 -45 -78t-82 -32q-46 0 -72 32t-18 78z" />
<glyph unicode="&#x201e;" horiz-adv-x="714" d="M63 -121l43 238q7 46 45.5 78t84.5 32q45 0 71 -32.5t17 -77.5l-41 -238q-8 -44 -45.5 -76t-83.5 -32q-44 0 -71 32t-20 76zM391 -121l43 238q7 46 45 78t82 32q46 0 72 -32t18 -78l-41 -238q-9 -44 -47 -76t-82 -32t-70.5 32t-19.5 76z" />
<glyph unicode="&#x2022;" horiz-adv-x="346" d="M63 608q9 47 48 82t84 35q44 0 70 -35.5t18 -81.5q-7 -45 -45.5 -77.5t-83.5 -32.5t-71.5 32.5t-19.5 77.5z" />
<glyph unicode="&#x202f;" horiz-adv-x="327" />
<glyph unicode="&#x2039;" horiz-adv-x="667" d="M63 614.5q7 37.5 39 65.5l359 305q31 26 69 26t60 -26t15 -64.5t-38 -64.5l-284 -242l198 -239q23 -28 16.5 -65.5t-38.5 -63.5q-31 -28 -68.5 -28t-60.5 28q-250 305 -252 305q-22 26 -15 63.5z" />
<glyph unicode="&#x203a;" horiz-adv-x="667" d="M62.5 309.5q6.5 37.5 37.5 65.5l285 239l-199 242q-22 26 -15 64.5t38 64.5q32 26 69.5 26t59.5 -26l252 -305q22 -28 15 -65.5t-38 -63.5l-360 -305q-31 -28 -68.5 -28t-60.5 28q-22 26 -15.5 63.5z" />
<glyph unicode="&#x205f;" horiz-adv-x="409" />
<glyph unicode="&#x20ac;" horiz-adv-x="1284" d="M63 430q8 38 39.5 65t69.5 27h133l33 185h-131q-36 0 -58 26.5t-18 65.5q6 38 38.5 66t70.5 28h131q80 322 491 336q18 0 48.5 -0.5t109 -10.5t139.5 -30q62 -29 62.5 -77t-45.5 -88.5t-93 -27.5q-138 43 -211 45q-193 0 -260 -147h349q34 0 54.5 -26.5t20.5 -67.5 q-8 -37 -39 -64.5t-69 -27.5h-357q-28 -160 -32 -185h354q36 0 57.5 -26.5t18.5 -65.5q-8 -38 -38.5 -64.5t-70.5 -27.5h-352q1 -26 9.5 -48.5t29.5 -48t67.5 -40.5t112.5 -15q69 0 129 13q3 1 34.5 9t49 11t42 1t36.5 -13q15 -14 23.5 -34.5t8.5 -45t-23.5 -48.5t-70.5 -40 q-99 -35 -260 -37.5t-245 31.5q-36 14 -56.5 24t-48 33.5t-41 53t-22 79t-4.5 115.5h-140q-36 0 -57.5 26.5t-18.5 65.5z" />
<glyph unicode="&#x2122;" horiz-adv-x="520" d="M61 1622q3 16 21 16h147q18 0 15 -16q-4 -18 -21 -18h-51l-31 -168q-2 -8 -8.5 -14.5t-15.5 -6.5t-15 6.5t-4 14.5l31 168h-53q-6 0 -10.5 5.5t-4.5 12.5zM223 1434l31 176q1 12 12 20t23 8q23 0 26 -20l11 -92q2 -27 2 -64v-10l4 10q9 31 24 64l43 92q10 20 33 20 q12 0 20 -8t5 -20l-31 -176q-4 -19 -20 -19q-8 0 -13 6t-4 13l19 102l10 53l-72 -157q-7 -17 -24 -17t-21 15l-16 159q0 -23 -25 -155q-4 -19 -22 -19q-7 0 -12 5.5t-3 13.5z" />
<glyph unicode="&#x25fc;" horiz-adv-x="1228" d="M0 0v1229h1229v-1229h-1229z" />
<glyph unicode="&#xfb01;" horiz-adv-x="1378" d="M63 117l130 725q32 183 170 285t380 102h484q44 0 70 -32.5t18 -78.5l-176 -1007q-9 -46 -47 -78.5t-82 -32.5q-45 0 -71.5 32.5t-18.5 78.5l163 921h-374q-96 0 -156.5 -25.5t-88.5 -68t-40 -109.5l-25 -139h404q43 0 67.5 -29.5t16.5 -72.5t-43 -73t-78 -30h-404 l-65 -368q-8 -48 -48 -82.5t-89 -34.5q-47 0 -76 35t-21 82z" />
<glyph unicode="&#xfb02;" horiz-adv-x="1716" d="M66 117l127 725q33 183 171.5 285t380.5 102h484q49 0 77 -34.5t19 -82.5l-160 -903h402q39 0 66 -30.5t20 -74.5q-8 -43 -43.5 -73.5t-79.5 -30.5h-518q-47 0 -75 35t-19 82l161 915h-368q-73 0 -125 -13.5t-84.5 -41t-50.5 -63t-27 -85.5l-25 -139h406q42 0 66.5 -30 t17.5 -72q-8 -43 -43 -73t-78 -30h-403l-66 -368q-9 -47 -49.5 -82t-87.5 -35q-49 0 -77 34.5t-19 82.5z" />
<glyph unicode="&#xfb03;" horiz-adv-x="2228" d="M66 117l127 723q32 184 170 286.5t380 102.5h1338q42 0 67 -34t17 -79l-178 -1005q-8 -46 -45.5 -78.5t-83.5 -32.5q-45 0 -71.5 33t-17.5 78l162 921h-368q-73 0 -125 -13.5t-84.5 -41t-50.5 -63t-27 -85.5l-25 -139h406q41 0 66 -30.5t18 -71.5q-8 -43 -43 -73t-78 -30 h-403l-66 -368q-9 -49 -49 -83t-88 -34q-50 0 -77.5 34t-18.5 83l126 723q17 106 78 192h-413q-96 0 -156.5 -25.5t-88.5 -68t-40 -109.5l-25 -139h404q42 0 67 -30t19 -72q-7 -42 -43 -72.5t-78 -30.5h-406l-63 -368q-9 -49 -49 -83t-88 -34q-50 0 -77.5 34t-18.5 83z" />
<glyph unicode="&#xfb04;" horiz-adv-x="2228" d="M66 117l127 723q32 184 170 286.5t380 102.5h1338q42 0 67 -34t17 -79l-178 -1005q-8 -46 -45.5 -78.5t-83.5 -32.5q-45 0 -71.5 33t-17.5 78l162 921h-368q-73 0 -125 -13.5t-84.5 -41t-50.5 -63t-27 -85.5l-25 -139h406q41 0 66 -30.5t18 -71.5q-8 -43 -43 -73t-78 -30 h-403l-66 -368q-9 -49 -49 -83t-88 -34q-50 0 -77.5 34t-18.5 83l126 723q17 106 78 192h-413q-96 0 -156.5 -25.5t-88.5 -68t-40 -109.5l-25 -139h404q42 0 67 -30t19 -72q-7 -42 -43 -72.5t-78 -30.5h-406l-63 -368q-9 -49 -49 -83t-88 -34q-50 0 -77.5 34t-18.5 83z" />
</font>
</defs>
</svg>
